<?xml version='1.0' encoding='utf-8'?>
<svg xmlns="http://www.w3.org/2000/svg" width="1920" height="1080" viewBox="0 0 1920 1080" data-theme="dark">
  <style>
        @font-face {
            font-family: 'Inter';
            src: url('assets/fonts/Inter-Regular.ttf') format('truetype');
            font-weight: 400;
            font-style: normal;
            font-display: swap;
        }
        @font-face {
            font-family: 'Inter';
            src: url('assets/fonts/Inter-Bold.ttf') format('truetype');
            font-weight: 600;
            font-style: normal;
            font-display: swap;
        }
        @font-face {
            font-family: 'Inter';
            src: url('assets/fonts/Inter-Bold.ttf') format('truetype');
            font-weight: 800;
            font-style: normal;
            font-display: swap;
        }
        
:root {
    --background: #0f172a;
    --panel: #1e293b;
    --primary-text: #f1f5f9;
    --muted-text: #94a3b8;
    --inverse-text: #0f172a;
    --border: #334155;
    --shadow-color: #000000;
    --icon-pad-bg: #1e293b;
    --art-glow: #7dd3fc;
    --art-glow-opacity: 0.18;
    --art-sheen: #ffffff;
    --art-sheen-opacity: 0.18;
    --art-shadow: #000000;
    --art-shadow-opacity: 0.28;
    --art-muted-line: #64748b;
    --art-panel-tint: #1e293b;
    --font-family: 'Inter', 'Segoe UI', 'Kalam', Roboto, Helvetica, Arial, sans-serif;
    --radius-xl: 16px;
    --font-family-headline: 'Inter', 'Segoe UI', 'Kalam', Roboto, Helvetica, Arial, sans-serif;
    --font-family-body: 'Inter', 'Segoe UI', 'Kalam', Roboto, Helvetica, Arial, sans-serif;
    --font-heading: 'Inter', 'Segoe UI', 'Kalam', Roboto, Helvetica, Arial, sans-serif;
    --font-body: 'Inter', 'Segoe UI', 'Kalam', Roboto, Helvetica, Arial, sans-serif;
    --font-size-h1: 56px;
    --font-size-h2: 40px;
    --font-size-h3: 28px;
    --font-size-body: 24px;
    --font-size-caption: 18px;
    --secondary-text: var(--muted-text);
    --panel-border: var(--border);
    --font-weight-normal: 400;
    --font-weight-medium: 500;
    --font-weight-semibold: 600;
    --font-weight-bold: 700;
    --spacing-gutter-pct: 0.07;
    --spacing-top-pct: 0.15;
    --spacing-bottom-pct: 0.07;
    --spacing-title-y-pct: 0.055;
    --accent-1: #22d3ee;
    --accent-2: #38bdf8;
    --accent-3: #60a5fa;
    --accent-4: #818cf8;
    --accent-5: #a78bfa;
    --accent-6: #2dd4bf;
}
:root[data-theme="dark"] {
    --background: #0f172a;
    --panel: #1e293b;
    --primary-text: #f1f5f9;
    --muted-text: #94a3b8;
    --inverse-text: #0f172a;
    --border: #334155;
    --shadow-color: #000000;
    --icon-pad-bg: #1e293b;
    --art-glow: #7dd3fc;
    --art-glow-opacity: 0.18;
    --art-sheen: #ffffff;
    --art-sheen-opacity: 0.18;
    --art-shadow: #000000;
    --art-shadow-opacity: 0.28;
    --art-muted-line: #64748b;
    --art-panel-tint: #1e293b;
    --accent-1: #22d3ee;
    --accent-2: #38bdf8;
    --accent-3: #60a5fa;
    --accent-4: #818cf8;
    --accent-5: #a78bfa;
    --accent-6: #2dd4bf;
}
:root[data-theme="light"] {
    --background: #f8fafc;
    --panel: #ffffff;
    --primary-text: #0f172a;
    --muted-text: #64748b;
    --inverse-text: #ffffff;
    --border: #e2e8f0;
    --shadow-color: #000000;
    --icon-pad-bg: #1e293b;
    --art-glow: #0891b2;
    --art-glow-opacity: 0.10;
    --art-sheen: #ffffff;
    --art-sheen-opacity: 0.34;
    --art-shadow: #0f172a;
    --art-shadow-opacity: 0.14;
    --art-muted-line: #94a3b8;
    --art-panel-tint: #f1f5f9;
    --accent-1: #0891b2;
    --accent-2: #0284c7;
    --accent-3: #2563eb;
    --accent-4: #4f46e5;
    --accent-5: #7c3aed;
    --accent-6: #0d9488;
}</style>
  <rect x="0" y="0" width="1.92E+3" height="1.08E+3" fill="#252a34" stroke="none" id="programmatic_background"/>
  <line id="HEADER_DECOR" x1="960.0" x2="1080.0" y1="95.0" y2="95.0" stroke="var(--accent-1)" stroke-width="6" stroke-linecap="round"/>
  <defs>
    <pattern id="svgb14b81d6-napkin-hatch" patternUnits="userSpaceOnUse" width="12" height="12">
      <path d="M -3 12 L 12 -3 M 0 15 L 15 0" fill="none" stroke="var(--primary-text)" stroke-width="1" stroke-opacity="0.05"/>
    </pattern>
    <filter id="svgb14b81d6-shadow" x="-30%" y="-30%" width="160%" height="160%">
      <feDropShadow dx="0" dy="2" stdDeviation="3" flood-color="#000000" flood-opacity="0.08"/>
      <feDropShadow dx="0" dy="6" stdDeviation="10" flood-color="#000000" flood-opacity="0.12"/>
    </filter>
    <radialGradient id="svgb14b81d6-universal-edge-vignette" cx="50%" cy="50%" r="72%">
      <stop offset="0%" stop-color="var(--background)" stop-opacity="0"/>
      <stop offset="72%" stop-color="var(--background)" stop-opacity="0.12"/>
      <stop offset="100%" stop-color="var(--primary-text)" stop-opacity="0.08"/>
    </radialGradient>
    <linearGradient id="svgb14b81d6-universal-surface-sheen" x1="0%" y1="0%" x2="100%" y2="100%">
      <stop offset="0%" stop-color="var(--art-sheen)" stop-opacity="var(--art-sheen-opacity)"/>
      <stop offset="46%" stop-color="var(--art-sheen)" stop-opacity="0.035"/>
      <stop offset="100%" stop-color="var(--art-panel-tint)" stop-opacity="0.14"/>
    </linearGradient>
    <radialGradient id="svgb14b81d6-universal-icon-aura" cx="50%" cy="42%" r="64%">
      <stop offset="0%" stop-color="var(--art-glow)" stop-opacity="var(--art-glow-opacity)"/>
      <stop offset="100%" stop-color="var(--background)" stop-opacity="0"/>
    </radialGradient>
    <radialGradient id="svgb14b81d6-venn-center-glow" cx="50%" cy="50%" r="60%">
      <stop offset="0%" stop-color="var(--art-glow)" stop-opacity="var(--art-glow-opacity)"/>
      <stop offset="100%" stop-color="var(--background)" stop-opacity="0"/>
    </radialGradient>
    <linearGradient id="svgb14b81d6-venn-label-sheen" x1="0%" y1="0%" x2="100%" y2="100%">
      <stop offset="0%" stop-color="var(--inverse-text)" stop-opacity="0.14"/>
      <stop offset="100%" stop-color="var(--background)" stop-opacity="0.12"/>
    </linearGradient>
    <filter id="svgb14b81d6-text-glow" x="-20%" y="-20%" width="140%" height="140%">
      <feDropShadow dx="0" dy="0" stdDeviation="2" flood-color="#000000" flood-opacity="0.4"/>
    </filter>
    <marker id="svgb14b81d6-arrowhead" markerWidth="10" markerHeight="7" refX="9" refY="3.5" orient="auto" markerUnits="strokeWidth">
      <polygon points="0 0, 10 3.5, 0 7" fill="var(--muted-text)" opacity="0.6"/>
    </marker>
  </defs>
  <rect width="100%" height="100%" fill="var(--background)" id="CANVAS_BG"/>
  <rect width="100%" height="100%" fill="url(#svgb14b81d6-napkin-hatch)"/>
  <rect id="UNIVERSAL_EDGE_VIGNETTE" width="100%" height="100%" fill="url(#svgb14b81d6-universal-edge-vignette)" opacity="0.62"/>
  <text id="TITLE" x="960.0" y="59" text-anchor="middle" font-weight="800" font-size="56" fill="#f1f5f9" style="font-size: 60px; font-family: Inter, Segoe UI, Kalam, Roboto, Helvetica, Arial, sans-serif; font-weight: 700; letter-spacing:-1.2px;" data-final-font-size="60">
    <tspan x="960.0" dy="68.00px">Layered Naval Defense Architecture</tspan>
  </text>
  <rect id="TITLE_FRAME" x="134" y="35" width="1652" height="80" fill="none"/>
  <g id="DIAGRAM_MAIN" transform="translate(960, 620)">
    <!-- Circle backgrounds -->
    <circle id="ITEM_1_BG" cx="0" cy="-130" r="200" fill="var(--accent-1)" fill-opacity="0.35" stroke="var(--border)" stroke-width="2"/>
    <circle id="ITEM_2_BG" cx="130" cy="0" r="200" fill="var(--accent-2)" fill-opacity="0.35" stroke="var(--border)" stroke-width="2"/>
    <circle id="ITEM_3_BG" cx="0" cy="130" r="200" fill="var(--accent-3)" fill-opacity="0.35" stroke="var(--border)" stroke-width="2"/>
    <circle id="ITEM_4_BG" cx="-130" cy="0" r="200" fill="var(--accent-4)" fill-opacity="0.35" stroke="var(--border)" stroke-width="2"/>
    <!-- ITEM 1 - Top (y=-260 to be in non-overlap area) -->
    <circle id="ITEM_1_PAD" cx="0" cy="-260" r="50" fill="var(--icon-pad-bg)" stroke="var(--primary-text)" opacity="0.9" fill-opacity="0.9" stroke-width="2"/>
    <circle id="ITEM_1_PAD_INNER" cx="0" cy="-260" r="39.00" fill="var(--accent-1)" fill-opacity="0.22"/>
    <circle cx="0" cy="-260" r="40" fill="none" stroke="var(--accent-1)" stroke-width="3" stroke-dasharray="6 4"/>
    <g id="ITEM_1_ICON" transform="translate(-30, -290)" data-icon-size="60">
      <g transform="translate(-14.52212389380531,-13.831858407079645) scale(2.7610619469026547)">
        <path d="M29.2001 2.94972C28.253 2.00263 26.4999 1.9525 25.3817 2.52547C24.4693 2.83877 23.5081 3.19209 22.5278 3.58828L22.5383 3.59883C19.9627 4.69286 16.1108 6.63769 13.0279 9.49984C10.8637 11.5091 9.62366 13.0559 8.79313 14.4647L3.49489 16.4149C2.80991 16.6671 2.6171 17.5444 3.13322 18.0605C6.84572 21.773 10.5582 25.4855 14.2707 29.198C14.7868 29.7141 15.6641 29.5213 15.9163 28.8363L18.1197 22.8504C19.7284 21.8921 21.3425 20.6853 23.0279 18.9999C25.4183 16.6095 27.3936 12.4408 28.5413 9.64309L28.5496 9.65145C28.9506 8.66094 29.3079 7.68963 29.6243 6.76812C30.1973 5.64991 30.3642 4.11384 29.2001 2.94972Z" fill="#CA0B4A"/>
        <path d="M23.2987 4.3645C20.7818 5.4041 16.8206 7.34324 13.7083 10.2327C11.6937 12.103 10.5374 13.5272 9.76899 14.7821C8.99995 16.0381 8.59391 17.1628 8.10621 18.5226L8.10371 18.5296C7.93354 19.0041 7.75311 19.5072 7.54517 20.0441L12.1006 24.5996C15.7031 23.1209 18.8412 21.7724 22.3208 18.2928C24.6722 15.9414 26.6597 11.6505 27.7751 8.87168L23.2987 4.3645Z" fill="#F4F4F4"/>
        <path d="M24.5278 11.25C24.5278 13.0449 23.0727 14.5 21.2778 14.5C19.4828 14.5 18.0278 13.0449 18.0278 11.25C18.0278 9.45507 19.4828 8 21.2778 8C23.0727 8 24.5278 9.45507 24.5278 11.25Z" fill="#9B9B9B"/>
        <path d="M23.5278 11.25C23.5278 12.4926 22.5204 13.5 21.2778 13.5C20.0351 13.5 19.0278 12.4926 19.0278 11.25C19.0278 10.0074 20.0351 9 21.2778 9C22.5204 9 23.5278 10.0074 23.5278 11.25Z" fill="#83CBFF"/>
        <path d="M2.45122 29.6108C1.74411 28.9037 2.02779 24 4.52777 23C4.52777 23 7.02777 22 8.63878 23.6005C10.2498 25.2011 9.52776 26.9999 9.52776 26.9999C8.82068 29.1212 5.81033 29.9645 5.45679 29.6109C5.26153 29.4157 5.61314 29.0602 5.45679 28.9038C5.30045 28.7475 5.05904 28.9259 4.39613 29.2574C3.92473 29.4931 2.73406 29.8937 2.45122 29.6108Z" fill="#FF8257"/>
        <path d="M6.08839 21.0607C6.67417 20.4749 7.62392 20.4749 8.20971 21.0607L11.7452 24.5962C12.331 25.182 12.331 26.1317 11.7452 26.7175C11.1595 27.3033 10.2097 27.3033 9.62392 26.7175L6.08839 23.182C5.5026 22.5962 5.5026 21.6465 6.08839 21.0607Z" fill="#533566"/>
        <path d="M15.5351 18.722C15.977 17.5214 14.8098 16.3542 13.6092 16.7961L6.49489 19.4149C5.80991 19.6671 5.6171 20.5444 6.13322 21.0605L11.2707 26.198C11.7868 26.7141 12.6641 26.5213 12.9163 25.8363L15.5351 18.722Z" fill="#F92F60"/>
      </g>
    </g>
    <rect id="ITEM_1_TEXT_BG" x="-208.0" y="-226.0" width="416.0" height="190.0" rx="16" fill="var(--panel)" fill-opacity="0.94" stroke="var(--primary-text)" stroke-opacity="0.12" stroke-width="1.5"/>
    <rect x="-208.0" y="-226.0" width="416.0" height="190.0" rx="16" fill="url(#svgb14b81d6-venn-label-sheen)" opacity="0.85"/>
    <text id="ITEM_1_HEAD" x="0.0" y="-210.0" text-anchor="middle" font-weight="bold" font-size="34" fill="var(--accent-1)" data-bg-id="ITEM_1_TEXT_BG" fill-opacity="1.0" stroke="none" style="font-size: 30px; font-family: Inter, Segoe UI, Kalam, Roboto, Helvetica, Arial, sans-serif; font-weight: 700; letter-spacing:-0.4px;" data-final-font-size="30">
      <tspan x="0.0" dy="31.25px">Outer Layer</tspan>
    </text>
    <rect id="ITEM_1_HEAD_FRAME" x="-170" y="-210" width="340" height="46" fill="none"/>
    <text id="ITEM_1_BODY" x="0.0" y="-152.0" text-anchor="middle" font-size="20" fill="var(--primary-text)" data-bg-id="ITEM_1_TEXT_BG" style="font-size: 26px; font-family: Inter, Segoe UI, Kalam, Roboto, Helvetica, Arial, sans-serif; font-weight: 400;" data-final-font-size="26">
      <tspan x="0.0" dy="28.84px">Long-range missiles intercept</tspan>
      <tspan x="0.0" dy="29.90px">distant aerial threats</tspan>
    </text>
    <rect id="ITEM_1_BODY_FRAME" x="-190" y="-152" width="380" height="100" fill="none"/>
    <!-- ITEM 2 - Right (x=260 to be in non-overlap area) -->
    <circle id="ITEM_2_PAD" cx="260" cy="0" r="50" fill="var(--icon-pad-bg)" stroke="var(--primary-text)" opacity="0.9" fill-opacity="0.9" stroke-width="2"/>
    <circle id="ITEM_2_PAD_INNER" cx="260" cy="0" r="39.00" fill="var(--accent-2)" fill-opacity="0.22"/>
    <circle cx="260" cy="0" r="40" fill="none" stroke="var(--accent-2)" stroke-width="3" stroke-dasharray="6 4"/>
    <g id="ITEM_2_ICON" transform="translate(230, -30)" data-icon-size="60">
      <g transform="translate(-13.03448275862069,-13.03448275862069) scale(0.16810344827586207)" vector-effect="non-scaling-stroke" fill="#f1f5f9" fill-opacity="1.0" stroke="none">
        <path fill="#f1f5f9" d="M144.256 43.072c-15.311.066-29.953 3.498-42.8 11.117q-.959.57-1.905 1.178l14.19 12.623c25.682-12.925 64.8-6.102 98.026 14.306c5.014 3.08 9.855 6.45 14.479 10.059l21.646-5.346c-8.236-7.511-17.256-14.247-26.705-20.05c-24.036-14.764-51.414-23.998-76.931-23.887m-68.547 15.18l-25.24 47.11l29.695 14.13l25.748-34.377zm186.62 43.732l-19.948 4.928c7.106 7.428 13.273 15.483 18.175 23.953l18.809-3.479c-4.589-8.99-10.366-17.497-17.035-25.402zm-85.507 2.02l-13.547 11.851l69.123 78.996l12.754-12.754zm302.164 20.503l-26.607 13.856l8.314 15.965l26.608-13.858zm-428.613.744c-12.944 30.79-22.136 66.493-24.819 99.18c-2.73 33.266.59 63.796 17.1 83.004c8.255 9.604 20.29 15.696 34.463 16.215c13.842.506 29.56-3.78 47.78-13.074l-8.315-15.965c-16.368 8.323-29.294 11.399-38.807 11.05c-9.768-.357-16.13-3.745-21.47-9.958c-10.681-12.427-15.347-38.877-12.81-69.8c2.472-30.117 11.139-64.082 23.153-92.907zm379.576 9.01l-106.9 55.674v51.861l128.146-66.738zm-143.576 10.133l-17.983 3.326c1.986 5.646 3.364 11.402 4.082 17.21h18.123a99.5 99.5 0 0 0-4.222-20.536m-16.596 38.535l-42.728 42.729v67.271h78v-21.117c-6.572 4.486-14.495 7.117-23 7.117c-22.537 0-41-18.463-41-41s18.462-41 41-41c8.505 0 16.428 2.632 23 7.117V182.93zm12.272 32c-12.81 0-23 10.191-23 23c0 12.81 10.19 23 23 23c12.809 0 23-10.19 23-23c0-12.809-10.191-23-23-23m-73 34.375l-75.334 39.235l21.246 40.796l54.088-28.168zm34 61.625v76h46v-76zm-113.182 9.192c-32.77 18.212-51.334 33.848-59.8 49.992c-4.4 8.389-5.74 17.206-4.044 25.217s6.093 14.896 11.658 20.857c11.131 11.923 27.253 20.999 43.524 29.512c2.542 1.33 5.067 2.616 7.6 3.914l16.04-12.031c-5.092-2.591-10.238-5.187-15.294-7.832c-15.808-8.272-30.58-17.138-38.711-25.848c-4.066-4.355-6.394-8.458-7.207-12.3c-.814-3.844-.45-7.744 2.375-13.128c5.408-10.312 21.15-25.012 52.177-42.38zm97.182 84.808v16h78v-16h-71zm-54 34l-40 30h266l-40-30z" vector-effect="non-scaling-stroke" stroke="none"/>
      </g>
    </g>
    <rect id="ITEM_2_TEXT_BG" x="352.0" y="-66.0" width="416.0" height="202.0" rx="16" fill="var(--panel)" fill-opacity="0.94" stroke="var(--primary-text)" stroke-opacity="0.12" stroke-width="1.5"/>
    <rect x="352.0" y="-66.0" width="416.0" height="202.0" rx="16" fill="url(#svgb14b81d6-venn-label-sheen)" opacity="0.85"/>
    <text id="ITEM_2_HEAD" x="370.0" y="-50.0" text-anchor="start" font-weight="bold" font-size="36" fill="var(--accent-2)" data-bg-id="ITEM_2_TEXT_BG" fill-opacity="1.0" stroke="none" style="font-size: 30px; font-family: Inter, Segoe UI, Kalam, Roboto, Helvetica, Arial, sans-serif; font-weight: 700; letter-spacing:-0.4px;" data-final-font-size="30">
      <tspan x="370.0" dy="33.25px">Middle Layer</tspan>
    </text>
    <rect id="ITEM_2_HEAD_FRAME" x="370" y="-50" width="220" height="50" fill="none"/>
    <text id="ITEM_2_BODY" x="370.0" y="0.0" text-anchor="start" font-size="20" fill="var(--primary-text)" data-bg-id="ITEM_2_TEXT_BG" style="font-size: 26px; font-family: Inter, Segoe UI, Kalam, Roboto, Helvetica, Arial, sans-serif; font-weight: 400;" data-final-font-size="26">
      <tspan x="370.0" dy="32.84px">DragonFire lasers engage</tspan>
      <tspan x="370.0" dy="29.90px">slower drone swarms</tspan>
    </text>
    <rect id="ITEM_2_BODY_FRAME" x="370" y="0" width="380" height="120" fill="none"/>
    <!-- ITEM 3 - Bottom (y=260 to be in non-overlap area) -->
    <circle id="ITEM_3_PAD" cx="0" cy="260" r="50" fill="var(--icon-pad-bg)" stroke="var(--primary-text)" opacity="0.9" fill-opacity="0.9" stroke-width="2"/>
    <circle id="ITEM_3_PAD_INNER" cx="0" cy="260" r="39.00" fill="var(--accent-3)" fill-opacity="0.22"/>
    <circle cx="0" cy="260" r="40" fill="none" stroke="var(--accent-3)" stroke-width="3" stroke-dasharray="6 4"/>
    <g id="ITEM_3_ICON" transform="translate(-30, 230)" data-icon-size="60">
      <g transform="translate(-12.277310924369747,-12.277310924369747) scale(0.1638655462184874)" vector-effect="non-scaling-stroke" fill="#f1f5f9" fill-opacity="1.0" stroke="none">
        <path fill="#f1f5f9" d="m142.373 116.285l-15.92 9.79l19.223 31.257c-17.208 13.06-28.326 33.725-28.326 56.994c0 21.555 9.55 40.866 24.632 53.977l-71.76 92.16L20.66 379.69v17.828h71.834l73.588-95.78h8.22c-5.383 42.56 21.434 83.807 63.995 95.21c46.448 12.447 94.437-15.26 106.883-61.708a86.7 86.7 0 0 0 2.273-33.502h35.3v-30.61l109.858-7.968v-96.365l-286.655-21.91a71.6 71.6 0 0 0-17.094-2.072c-9.53 0-18.62 1.88-26.934 5.265l-19.553-31.793zM260.637 244.04a69 69 0 0 1 17.998 2.37c36.692 9.832 58.323 47.3 48.492 83.992s-47.3 58.326-83.992 48.494c-36.692-9.83-58.326-47.3-48.494-83.992c7.99-29.812 34.222-49.684 63.46-50.814q1.266-.05 2.537-.05zm3.633 19.747l-8.225 30.697l-22.47-22.47l-13.216 13.215l22.47 22.47l-30.695 8.226l4.838 18.053l30.695-8.226l-8.225 30.695l18.053 4.835l8.225-30.693l22.47 22.47l13.214-13.216l-22.468-22.47l30.695-8.226l-4.837-18.052l-30.695 8.224l8.224-30.697l-18.052-4.838z" vector-effect="non-scaling-stroke" stroke="none"/>
      </g>
    </g>
    <rect id="ITEM_3_TEXT_BG" x="-208.0" y="316.0" width="416.0" height="202.0" rx="16" fill="var(--panel)" fill-opacity="0.94" stroke="var(--primary-text)" stroke-opacity="0.12" stroke-width="1.5"/>
    <rect x="-208.0" y="316.0" width="416.0" height="202.0" rx="16" fill="url(#svgb14b81d6-venn-label-sheen)" opacity="0.85"/>
    <text id="ITEM_3_HEAD" x="0.0" y="332.0" text-anchor="middle" font-weight="bold" font-size="36" fill="var(--accent-3)" data-bg-id="ITEM_3_TEXT_BG" fill-opacity="1.0" stroke="none" style="font-size: 30px; font-family: Inter, Segoe UI, Kalam, Roboto, Helvetica, Arial, sans-serif; font-weight: 700; letter-spacing:-0.4px;" data-final-font-size="30">
      <tspan x="0.0" dy="32.25px">Inner Layer</tspan>
    </text>
    <rect id="ITEM_3_HEAD_FRAME" x="-140" y="332" width="280" height="48" fill="none"/>
    <text id="ITEM_3_BODY" x="0.0" y="382.0" text-anchor="middle" font-size="20" fill="var(--primary-text)" data-bg-id="ITEM_3_TEXT_BG" style="font-size: 26px; font-family: Inter, Segoe UI, Kalam, Roboto, Helvetica, Arial, sans-serif; font-weight: 400;" data-final-font-size="26">
      <tspan x="0.0" dy="32.84px">Defensive guns provide close-</tspan>
      <tspan x="0.0" dy="29.90px">range protection</tspan>
    </text>
    <rect id="ITEM_3_BODY_FRAME" x="-190" y="382" width="380" height="120" fill="none"/>
    <!-- ITEM 4 - Left (x=-260 to be in non-overlap area) -->
    <circle id="ITEM_4_PAD" cx="-260" cy="0" r="50" fill="var(--icon-pad-bg)" stroke="var(--primary-text)" opacity="0.9" fill-opacity="0.9" stroke-width="2"/>
    <circle id="ITEM_4_PAD_INNER" cx="-260" cy="0" r="39.00" fill="var(--accent-4)" fill-opacity="0.22"/>
    <circle cx="-260" cy="0" r="40" fill="none" stroke="var(--accent-4)" stroke-width="3" stroke-dasharray="6 4"/>
    <g id="ITEM_4_ICON" transform="translate(-290, -30)" data-icon-size="60">
      <g transform="translate(-17.794117647058822,-18.176470588235293) scale(4.078431372549019)" vector-effect="non-scaling-stroke" stroke-width="2.43" stroke-linecap="round" stroke-linejoin="round" stroke-opacity="1.0">
        <path d="M6 20.5C7 11 11.5 8 20 6" stroke="#f1f5f9" vector-effect="non-scaling-stroke" fill="none"/>
        <path d="M15.9086 3.80941L20.3946 5.90126L18.3028 10.3873" stroke="#f1f5f9" vector-effect="non-scaling-stroke" fill="none"/>
        <path d="M5 7C6.10457 7 7 6.10457 7 5C7 3.89543 6.10457 3 5 3C3.89543 3 3 3.89543 3 5C3 6.10457 3.89543 7 5 7Z" stroke="#f1f5f9" vector-effect="non-scaling-stroke" fill="none"/>
        <path d="M16 20.2426L18.1213 18.1213M18.1213 18.1213L20.2426 16M18.1213 18.1213L16 16M18.1213 18.1213L20.2426 20.2426" stroke="#f1f5f9" vector-effect="non-scaling-stroke" fill="none"/>
      </g>
    </g>
    <rect id="ITEM_4_TEXT_BG" x="-768.0" y="-66.0" width="416.0" height="202.0" rx="16" fill="var(--panel)" fill-opacity="0.94" stroke="var(--primary-text)" stroke-opacity="0.12" stroke-width="1.5"/>
    <rect x="-768.0" y="-66.0" width="416.0" height="202.0" rx="16" fill="url(#svgb14b81d6-venn-label-sheen)" opacity="0.85"/>
    <text id="ITEM_4_HEAD" x="-370.0" y="-50.0" text-anchor="end" font-weight="bold" font-size="36" fill="var(--accent-4)" data-bg-id="ITEM_4_TEXT_BG" fill-opacity="1.0" stroke="none" style="font-size: 30px; font-family: Inter, Segoe UI, Kalam, Roboto, Helvetica, Arial, sans-serif; font-weight: 700; letter-spacing:-0.4px;" data-final-font-size="30">
      <tspan x="-370.0" dy="33.25px">Strategy</tspan>
    </text>
    <rect id="ITEM_4_HEAD_FRAME" x="-590" y="-50" width="220" height="50" fill="none"/>
    <text id="ITEM_4_BODY" x="-370.0" y="0.0" text-anchor="end" font-size="20" fill="var(--primary-text)" data-bg-id="ITEM_4_TEXT_BG" style="font-size: 26px; font-family: Inter, Segoe UI, Kalam, Roboto, Helvetica, Arial, sans-serif; font-weight: 400;" data-final-font-size="26">
      <tspan x="-370.0" dy="32.84px">Preserve expensive munitions</tspan>
      <tspan x="-370.0" dy="29.90px">for high-priority targets</tspan>
    </text>
    <rect id="ITEM_4_BODY_FRAME" x="-750" y="0" width="380" height="120" fill="none"/>
  </g>
</svg>
