<?xml version='1.0' encoding='utf-8'?>
<svg xmlns="http://www.w3.org/2000/svg" width="1920" height="1080" viewBox="0 0 1920 1080" data-theme="light">
  <style>
        @font-face {
            font-family: 'Inter';
            src: url('assets/fonts/Inter-Regular.ttf') format('truetype');
            font-weight: 400;
            font-style: normal;
            font-display: swap;
        }
        @font-face {
            font-family: 'Inter';
            src: url('assets/fonts/Inter-Bold.ttf') format('truetype');
            font-weight: 600;
            font-style: normal;
            font-display: swap;
        }
        @font-face {
            font-family: 'Inter';
            src: url('assets/fonts/Inter-Bold.ttf') format('truetype');
            font-weight: 800;
            font-style: normal;
            font-display: swap;
        }
        
:root {
    --background: #f8fafc;
    --panel: #ffffff;
    --primary-text: #0f172a;
    --muted-text: #64748b;
    --inverse-text: #ffffff;
    --border: #e2e8f0;
    --shadow-color: #000000;
    --icon-pad-bg: #1e293b;
    --art-glow: #0891b2;
    --art-glow-opacity: 0.10;
    --art-sheen: #ffffff;
    --art-sheen-opacity: 0.34;
    --art-shadow: #0f172a;
    --art-shadow-opacity: 0.14;
    --art-muted-line: #94a3b8;
    --art-panel-tint: #f1f5f9;
    --font-family: 'Inter', 'Segoe UI', 'Kalam', Roboto, Helvetica, Arial, sans-serif;
    --radius-xl: 16px;
    --font-family-headline: 'Inter', 'Segoe UI', 'Kalam', Roboto, Helvetica, Arial, sans-serif;
    --font-family-body: 'Inter', 'Segoe UI', 'Kalam', Roboto, Helvetica, Arial, sans-serif;
    --font-heading: 'Inter', 'Segoe UI', 'Kalam', Roboto, Helvetica, Arial, sans-serif;
    --font-body: 'Inter', 'Segoe UI', 'Kalam', Roboto, Helvetica, Arial, sans-serif;
    --font-size-h1: 56px;
    --font-size-h2: 40px;
    --font-size-h3: 28px;
    --font-size-body: 24px;
    --font-size-caption: 18px;
    --secondary-text: var(--muted-text);
    --panel-border: var(--border);
    --font-weight-normal: 400;
    --font-weight-medium: 500;
    --font-weight-semibold: 600;
    --font-weight-bold: 700;
    --spacing-gutter-pct: 0.07;
    --spacing-top-pct: 0.15;
    --spacing-bottom-pct: 0.07;
    --spacing-title-y-pct: 0.055;
    --accent-1: #0891b2;
    --accent-2: #db2777;
    --accent-3: #ca8a04;
    --accent-4: #65a30d;
    --accent-5: #ea580c;
    --accent-6: #9333ea;
}
:root[data-theme="dark"] {
    --background: #0f172a;
    --panel: #1e293b;
    --primary-text: #f1f5f9;
    --muted-text: #94a3b8;
    --inverse-text: #0f172a;
    --border: #334155;
    --shadow-color: #000000;
    --icon-pad-bg: #1e293b;
    --art-glow: #7dd3fc;
    --art-glow-opacity: 0.18;
    --art-sheen: #ffffff;
    --art-sheen-opacity: 0.18;
    --art-shadow: #000000;
    --art-shadow-opacity: 0.28;
    --art-muted-line: #64748b;
    --art-panel-tint: #1e293b;
    --accent-1: #22d3ee;
    --accent-2: #f472b6;
    --accent-3: #facc15;
    --accent-4: #a3e635;
    --accent-5: #fb923c;
    --accent-6: #c084fc;
}
:root[data-theme="light"] {
    --background: #f8fafc;
    --panel: #ffffff;
    --primary-text: #0f172a;
    --muted-text: #64748b;
    --inverse-text: #ffffff;
    --border: #e2e8f0;
    --shadow-color: #000000;
    --icon-pad-bg: #1e293b;
    --art-glow: #0891b2;
    --art-glow-opacity: 0.10;
    --art-sheen: #ffffff;
    --art-sheen-opacity: 0.34;
    --art-shadow: #0f172a;
    --art-shadow-opacity: 0.14;
    --art-muted-line: #94a3b8;
    --art-panel-tint: #f1f5f9;
    --accent-1: #0891b2;
    --accent-2: #db2777;
    --accent-3: #ca8a04;
    --accent-4: #65a30d;
    --accent-5: #ea580c;
    --accent-6: #9333ea;
}</style>
  <rect x="0" y="0" width="1.92E+3" height="1.08E+3" fill="#252a34" stroke="none" id="programmatic_background"/>
  <line id="HEADER_DECOR" x1="960.0" x2="1080.0" y1="135.0" y2="135.0" stroke="var(--accent-1)" stroke-width="6" stroke-linecap="round"/>
  <defs>
    <pattern id="svg61b2bfa9-napkin-hatch" patternUnits="userSpaceOnUse" width="12" height="12">
      <path d="M -3 12 L 12 -3 M 0 15 L 15 0" fill="none" stroke="var(--primary-text)" stroke-width="1" stroke-opacity="0.05"/>
    </pattern>
    <filter id="svg61b2bfa9-shadow" x="-30%" y="-30%" width="160%" height="160%">
      <feDropShadow dx="0" dy="2" stdDeviation="3" flood-color="#000000" flood-opacity="0.08"/>
      <feDropShadow dx="0" dy="6" stdDeviation="10" flood-color="#000000" flood-opacity="0.12"/>
    </filter>
    <marker id="svg61b2bfa9-arrowhead" markerWidth="10" markerHeight="10" refX="9" refY="5" orient="auto">
      <path d="M 0 0 L 10 5 L 0 10 Z" fill="var(--accent-1)"/>
    </marker>
    <filter id="svg61b2bfa9-text-glow" x="-20%" y="-20%" width="140%" height="140%">
      <feDropShadow dx="0" dy="0" stdDeviation="2" flood-color="#000000" flood-opacity="0.4"/>
    </filter>
    <radialGradient id="svg61b2bfa9-universal-edge-vignette" cx="50%" cy="50%" r="72%">
      <stop offset="0%" stop-color="var(--background)" stop-opacity="0"/>
      <stop offset="72%" stop-color="var(--background)" stop-opacity="0.12"/>
      <stop offset="100%" stop-color="var(--primary-text)" stop-opacity="0.08"/>
    </radialGradient>
    <linearGradient id="svg61b2bfa9-universal-surface-sheen" x1="0%" y1="0%" x2="100%" y2="100%">
      <stop offset="0%" stop-color="var(--art-sheen)" stop-opacity="var(--art-sheen-opacity)"/>
      <stop offset="46%" stop-color="var(--art-sheen)" stop-opacity="0.035"/>
      <stop offset="100%" stop-color="var(--art-panel-tint)" stop-opacity="0.14"/>
    </linearGradient>
    <radialGradient id="svg61b2bfa9-universal-icon-aura" cx="50%" cy="42%" r="64%">
      <stop offset="0%" stop-color="var(--art-glow)" stop-opacity="var(--art-glow-opacity)"/>
      <stop offset="100%" stop-color="var(--background)" stop-opacity="0"/>
    </radialGradient>
    <linearGradient id="svg61b2bfa9-myth-card-sheen" x1="0%" y1="0%" x2="100%" y2="100%">
      <stop offset="0%" stop-color="var(--inverse-text)" stop-opacity="0.18"/>
      <stop offset="56%" stop-color="var(--inverse-text)" stop-opacity="0.03"/>
      <stop offset="100%" stop-color="var(--background)" stop-opacity="0.12"/>
    </linearGradient>
  </defs>
  <rect width="100%" height="100%" fill="var(--background)" id="CANVAS_BG"/>
  <rect width="100%" height="100%" fill="url(#svg61b2bfa9-napkin-hatch)"/>
  <rect id="UNIVERSAL_EDGE_VIGNETTE" width="100%" height="100%" fill="url(#svg61b2bfa9-universal-edge-vignette)" opacity="0.62"/>
  <text id="TITLE" x="960.0" y="59" text-anchor="middle" font-weight="800" font-size="56" fill="#0f172a" style="font-size: 60px; font-family: Inter, Segoe UI, Kalam, Roboto, Helvetica, Arial, sans-serif; font-weight: 700; letter-spacing:-1.2px;" data-final-font-size="60">
    <tspan x="960.0" dy="68.00px">Dazzling vs Physical Damage</tspan>
  </text>
  <rect id="TITLE_FRAME" x="134" y="59" width="1652" height="103" fill="none"/>
  <g transform="translate(0, 190) scale(1.0)">
    <path d="M 920 -8 C 950 80 950 720 920 808" stroke="var(--primary-text)" stroke-width="2" stroke-opacity="0.10" fill="none"/>
    <path d="M 1000 -8 C 970 80 970 720 1000 808" stroke="var(--primary-text)" stroke-width="2" stroke-opacity="0.10" fill="none"/>
    <text x="480.0" y="0" text-anchor="middle" font-weight="900" font-size="52" fill="var(--accent-1)">MYTHS</text>
    <text x="1440.0" y="0" text-anchor="middle" font-weight="900" font-size="52" fill="var(--accent-2)">REALITY</text>
    <!-- Row 1 - cards at y=130 -->
    <g transform="translate(480.0, 130.0)">
      <rect id="ITEM_1_ACCENT_BG" x="-400" y="-110" width="800" height="245" rx="24" fill="var(--accent-6)" fill-opacity="1.0"/>
      <rect id="ITEM_1_BG" x="-400" y="-110" width="800" height="245" rx="18" fill="var(--panel)" stroke="var(--accent-1)" filter="url(#svg61b2bfa9-shadow)" stroke-width="3"/>
      <rect x="-388" y="-98" width="776" height="221" rx="16" fill="url(#svg61b2bfa9-myth-card-sheen)" opacity="0.92"/>
      <circle id="ITEM_1_PAD" cx="-330" cy="-40" r="46" fill="var(--icon-pad-bg)" stroke="var(--background)" stroke-width="2" stroke-opacity="0.65" opacity="0.94" fill-opacity="0.9"/>
      <circle id="ITEM_1_PAD_INNER" cx="-330" cy="-40" r="35.88" fill="var(--accent-6)" fill-opacity="0.22"/>
      <circle cx="-330" cy="-40" r="34" fill="none" stroke="var(--accent-1)" stroke-width="3" stroke-dasharray="6 4"/>
      <g id="ITEM_1_ICON" transform="translate(-358, -68)" data-icon-size="56" stroke-dasharray="6 4">
        <g transform="translate(-13.005714285714289,-24.538571428571434) scale(2.562857142857143)">
          <path d="M5.5 11C5.22386 11 5 11.2239 5 11.5V13H9V11.5C9 11.2239 8.77614 11 8.5 11H5.5Z" fill="#D3D3D3"/>
          <path d="M21.5 11C21.2239 11 21 11.2239 21 11.5V13H27V11.5C27 11.2239 26.7761 11 26.5 11H21.5Z" fill="#D3D3D3"/>
          <path d="M2 14C2 12.8954 2.89543 12 4 12H28C29.1046 12 30 12.8954 30 14V16.5L28 22L30 27.5V28C30 29.1046 29.1046 30 28 30H4C2.89543 30 2 29.1046 2 28V27.5L3.5 22L2 16.5V14Z" fill="#E6E6E6"/>
          <path d="M2 16.5C2 16.2239 2.22386 16 2.5 16H29.5C29.7761 16 30 16.2239 30 16.5V27.5C30 27.7761 29.7761 28 29.5 28H2.5C2.22386 28 2 27.7761 2 27.5V16.5Z" fill="#533566"/>
          <path d="M22 22C22 25.3137 19.3137 28 16 28C12.6863 28 10 25.3137 10 22C10 18.6863 12.6863 16 16 16C19.3137 16 22 18.6863 22 22Z" fill="#321B41"/>
          <path d="M16 27C18.7614 27 21 24.7614 21 22C21 19.2386 18.7614 17 16 17C13.2386 17 11 19.2386 11 22C11 24.7614 13.2386 27 16 27ZM16 29C12.134 29 9 25.866 9 22C9 18.134 12.134 15 16 15C19.866 15 23 18.134 23 22C23 25.866 19.866 29 16 29Z" fill="#9B9B9B"/>
          <path d="M18.5 22C18.5 23.3807 17.3807 24.5 16 24.5C14.6193 24.5 13.5 23.3807 13.5 22C13.5 20.6193 14.6193 19.5 16 19.5C17.3807 19.5 18.5 20.6193 18.5 22Z" fill="#433B6B"/>
          <path d="M19.0825 19.875C19.4967 20.5924 19.4448 21.3979 18.9665 21.674C18.4882 21.9501 17.7647 21.5924 17.3505 20.875C16.9363 20.1575 16.9882 19.3521 17.4665 19.0759C17.9448 18.7998 18.6683 19.1575 19.0825 19.875Z" fill="white"/>
        </g>
      </g>
      <text id="ITEM_1_HEAD" x="0.0" y="-85.0" text-anchor="middle" font-weight="bold" font-size="28" fill="var(--accent-6)" data-bg-id="ITEM_1_BG" fill-opacity="1.0" style="font-size: 30px; font-family: Inter, Segoe UI, Kalam, Roboto, Helvetica, Arial, sans-serif; font-weight: 700; letter-spacing:-0.4px;" data-final-font-size="30">
        <tspan x="0.0" dy="37.75px">Saturation Effect</tspan>
      </text>
      <rect id="ITEM_1_HEAD_FRAME" x="-310" y="-85" width="620" height="50" fill="none"/>
      <text id="ITEM_1_BODY" x="0.0" y="-20.0" text-anchor="middle" font-size="22" fill="var(--primary-text)" opacity="0.88" data-bg-id="ITEM_1_BG" style="font-size: 26px; font-family: Inter, Segoe UI, Kalam, Roboto, Helvetica, Arial, sans-serif; font-weight: 400;" data-final-font-size="26">
        <tspan x="0.0" dy="51.40px">Floods imaging systems with intense light</tspan>
      </text>
      <rect id="ITEM_1_BODY_FRAME" x="-310" y="-20" width="620" height="155" fill="none"/>
    </g>
    <g transform="translate(1440.0, 130.0)">
      <rect id="ITEM_2_ACCENT_BG" x="-400" y="-110" width="800" height="245" rx="24" fill="var(--accent-2)" fill-opacity="1.0"/>
      <rect id="ITEM_2_BG" x="-400" y="-110" width="800" height="245" rx="18" fill="var(--panel)" stroke="var(--accent-2)" filter="url(#svg61b2bfa9-shadow)" stroke-width="3"/>
      <rect x="-388" y="-98" width="776" height="221" rx="16" fill="url(#svg61b2bfa9-myth-card-sheen)" opacity="0.92"/>
      <circle id="ITEM_2_PAD" cx="330" cy="-40" r="46" fill="var(--icon-pad-bg)" stroke="var(--background)" stroke-width="2" stroke-opacity="0.65" opacity="0.94" fill-opacity="0.9"/>
      <circle id="ITEM_2_PAD_INNER" cx="330" cy="-40" r="35.88" fill="var(--accent-2)" fill-opacity="0.22"/>
      <circle cx="330" cy="-40" r="34" fill="none" stroke="var(--accent-2)" stroke-width="3" stroke-dasharray="6 4"/>
      <g id="ITEM_2_ICON" transform="translate(302, -68)" data-icon-size="56" stroke-dasharray="6 4">
        <g transform="translate(-10.571000000000005,-10.272000000000002) scale(0.14950000000000002)" vector-effect="non-scaling-stroke" fill="#f1f5f9" fill-opacity="1.0" stroke="none">
          <path fill="#f1f5f9" d="M41 19v228h25.5c6.96 61.3 40.5 114.1 88.4 145.4l12.1 61.3l-95.35-46.4a9.798 9.145 26.09 0 0-4.66-10.5a9.798 9.145 26.09 0 0-13.18 2.9a9.798 9.145 26.09 0 0 3.67 12.8a9.798 9.145 26.09 0 0 10.55-.1L144.5 496h216.6l33.4-22.3a8.636 11.2 54.07 0 0 .3 1.9a8.636 11.2 54.07 0 0 12.8 3.6a8.636 11.2 54.07 0 0 7.2-13a8.636 11.2 54.07 0 0-3.3-3.9l36.5-24.5l-89.6 26.2l32.4-57.5l-76.5 43.6l6.2-39.1c66.9-25.1 116.3-88.1 125-164H471V19h-30v155.4C420.1 88.03 345.3 23.87 256 23.87S91.93 87.95 71 174.2V19zm215 20.54c96.6 0 175.2 81.96 175.2 183.76c0 76.6-44.5 142-107.8 169.7l4.5-28.1L272 464c.1-47.1 1.5-159.3 34.6-204.7c40.7-16.6 68.4-52.4 68.4-93.3c0-56.3-52.6-103-119-103s-119 46.7-119 103c0 40.9 27.7 76.7 68.4 93.3c33.1 45.4 34.5 157.6 34.6 204.7l-51.8-128l.7 52.9l-52.5-90l14.1 71.2c-42.3-33.6-69.66-86.7-69.66-146.8C80.84 121.5 159.4 39.54 256 39.54M170.7 306.3a11.2 8.634 63.66 0 0-.9.1a11.2 8.634 63.66 0 0-5.7 11.9a11.2 8.634 63.66 0 0 11.6 9.4a11.2 8.634 63.66 0 0 5.8-12a11.2 8.634 63.66 0 0-10.8-9.4m181 30.9a8.998 12.75 27.2 0 0-10.5 7.9a8.998 12.75 27.2 0 0 2.2 15.5a8.998 12.75 27.2 0 0 13.8-7.3a8.998 12.75 27.2 0 0-2.2-15.4a8.998 12.75 27.2 0 0-3.3-.7M34.96 348.5a11.06 5.999 47.86 0 0-3.04 1a11.06 5.999 47.86 0 0 2.97 12.2a11.06 5.999 47.86 0 0 11.87 4.2a11.06 5.999 47.86 0 0-2.97-12.3a11.06 5.999 47.86 0 0-8.83-5.1m363.14 26.3a6.561 14.62 40.07 0 0-12 7.8a6.561 14.62 40.07 0 0-4.4 15.4a6.561 14.62 40.07 0 0 14.5-7a6.561 14.62 40.07 0 0 4.4-15.4a6.561 14.62 40.07 0 0-2.5-.8m81.2 59.7a7.525 16.82 50.66 0 0-15.5 7.8a7.525 16.82 50.66 0 0-5.7 15.7a7.525 16.82 50.66 0 0 18.7-7.1a7.525 16.82 50.66 0 0 5.7-15.7a7.525 16.82 50.66 0 0-3.2-.7m-404.79 18a13.68 8.998 27.81 0 0-7.87 3.8a13.68 8.998 27.81 0 0 7.9 14.3a13.68 8.998 27.81 0 0 16.3-1.5a13.68 8.998 27.81 0 0-7.9-14.4a13.68 8.998 27.81 0 0-8.43-2.2" vector-effect="non-scaling-stroke" stroke="none"/>
        </g>
      </g>
      <text id="ITEM_2_HEAD" x="0.0" y="-85.0" text-anchor="middle" font-weight="bold" font-size="28" fill="var(--accent-2)" data-bg-id="ITEM_2_BG" fill-opacity="1.0" style="font-size: 30px; font-family: Inter, Segoe UI, Kalam, Roboto, Helvetica, Arial, sans-serif; font-weight: 700; letter-spacing:-0.4px;" data-final-font-size="30">
        <tspan x="0.0" dy="37.75px">Material Heating</tspan>
      </text>
      <rect id="ITEM_2_HEAD_FRAME" x="-310" y="-85" width="620" height="50" fill="none"/>
      <text id="ITEM_2_BODY" x="0.0" y="-20.0" text-anchor="middle" font-size="22" fill="var(--primary-text)" opacity="0.88" data-bg-id="ITEM_2_BG" style="font-size: 26px; font-family: Inter, Segoe UI, Kalam, Roboto, Helvetica, Arial, sans-serif; font-weight: 400;" data-final-font-size="26">
        <tspan x="0.0" dy="51.40px">Deposits energy to melt or crack parts</tspan>
      </text>
      <rect id="ITEM_2_BODY_FRAME" x="-310" y="-20" width="620" height="155" fill="none"/>
    </g>
    <!-- Row 2 - cards at y=400 -->
    <g transform="translate(480.0, 400.0)">
      <rect id="ITEM_3_ACCENT_BG" x="-400" y="-110" width="800" height="245" rx="24" fill="var(--accent-3)" fill-opacity="0.15"/>
      <rect id="ITEM_3_BG" x="-400" y="-110" width="800" height="245" rx="18" fill="var(--panel)" stroke="var(--accent-3)" filter="url(#svg61b2bfa9-shadow)" stroke-width="3"/>
      <rect x="-388" y="-98" width="776" height="221" rx="16" fill="url(#svg61b2bfa9-myth-card-sheen)" opacity="0.92"/>
      <circle id="ITEM_3_PAD" cx="-330" cy="-40" r="46" fill="var(--icon-pad-bg)" stroke="var(--background)" stroke-width="2" stroke-opacity="0.65" opacity="0.94"/>
      <circle id="ITEM_3_PAD_INNER" cx="-330" cy="-40" r="35.88" fill="var(--accent-3)" fill-opacity="0.22"/>
      <circle cx="-330" cy="-40" r="34" fill="none" stroke="var(--accent-3)" stroke-width="3" stroke-dasharray="6 4"/>
      <g id="ITEM_3_ICON" transform="translate(-358, -68)" data-icon-size="56" stroke-dasharray="6 4">
        <g transform="translate(-10.920677966101698,-10.920677966101698) scale(3.243389830508475)" vector-effect="non-scaling-stroke" stroke-width="2.38" stroke-linecap="round" stroke-linejoin="round" stroke-opacity="1.0">
          <circle cx="12" cy="12" r="10" vector-effect="non-scaling-stroke" fill="none" stroke="#f1f5f9"/>
          <line x1="12" x2="12" y1="8" y2="12" vector-effect="non-scaling-stroke" fill="none" stroke="#f1f5f9"/>
          <line x1="12" x2="12.01" y1="16" y2="16" vector-effect="non-scaling-stroke" fill="none" stroke="#f1f5f9"/>
        </g>
      </g>
      <text id="ITEM_3_HEAD" x="0.0" y="-85.0" text-anchor="middle" font-weight="bold" font-size="28" fill="var(--primary-text)" data-bg-id="ITEM_3_BG" style="font-size: 30px; font-family: Inter, Segoe UI, Kalam, Roboto, Helvetica, Arial, sans-serif; font-weight: 700; letter-spacing:-0.4px;" data-final-font-size="30">
        <tspan x="0.0" dy="37.75px">Temporary Degradation</tspan>
      </text>
      <rect id="ITEM_3_HEAD_FRAME" x="-310" y="-85" width="620" height="50" fill="none"/>
      <text id="ITEM_3_BODY" x="0.0" y="-20.0" text-anchor="middle" font-size="22" fill="var(--primary-text)" opacity="0.88" data-bg-id="ITEM_3_BG" style="font-size: 26px; font-family: Inter, Segoe UI, Kalam, Roboto, Helvetica, Arial, sans-serif; font-weight: 400;" data-final-font-size="26">
        <tspan x="0.0" dy="51.40px">Sensors recover once illumination ends</tspan>
      </text>
      <rect id="ITEM_3_BODY_FRAME" x="-310" y="-20" width="620" height="155" fill="none"/>
    </g>
    <g transform="translate(1440.0, 400.0)">
      <rect id="ITEM_4_ACCENT_BG" x="-400" y="-110" width="800" height="245" rx="24" fill="var(--accent-4)" fill-opacity="0.15"/>
      <rect id="ITEM_4_BG" x="-400" y="-110" width="800" height="245" rx="18" fill="var(--panel)" stroke="var(--accent-4)" filter="url(#svg61b2bfa9-shadow)" stroke-width="3"/>
      <rect x="-388" y="-98" width="776" height="221" rx="16" fill="url(#svg61b2bfa9-myth-card-sheen)" opacity="0.92"/>
      <circle id="ITEM_4_PAD" cx="330" cy="-40" r="46" fill="var(--icon-pad-bg)" stroke="var(--background)" stroke-width="2" stroke-opacity="0.65" opacity="0.94"/>
      <circle id="ITEM_4_PAD_INNER" cx="330" cy="-40" r="35.88" fill="var(--accent-4)" fill-opacity="0.22"/>
      <circle cx="330" cy="-40" r="34" fill="none" stroke="var(--accent-4)" stroke-width="3" stroke-dasharray="6 4"/>
      <g id="ITEM_4_ICON" transform="translate(302, -68)" data-icon-size="56" stroke-dasharray="6 4">
        <g transform="translate(-13.005714285714289,-13.005714285714289) scale(2.562857142857143)">
          <path d="M3.2359 5.89697L6.00835 8.66735C6.26317 8.92198 6.66069 8.92198 6.91551 8.66735L8.66867 6.91549C8.92349 6.66086 8.92349 6.26364 8.66867 6.00901L5.89623 3.23862C5.53948 2.88214 5.71276 2.28121 6.19182 2.15899C7.96537 1.72102 9.92239 2.18954 11.329 3.54418C12.8928 5.05575 13.3617 7.28456 12.7243 9.22843L22.7212 19.2909C24.6418 18.6406 26.8528 19.0802 28.387 20.6132C29.7936 22.0188 30.2828 24.0049 29.8445 25.8178C29.7222 26.2864 29.1208 26.4595 28.7641 26.103L25.9917 23.3326C25.7368 23.078 25.3393 23.078 25.0845 23.3326L23.3313 25.0845C23.0765 25.3391 23.0765 25.7364 23.3313 25.991L26.1038 28.7614C26.4605 29.1179 26.2872 29.7188 25.8082 29.841C24.0346 30.279 22.0776 29.8105 20.671 28.4558C19.1243 26.9608 18.6487 24.7642 19.2552 22.8355L9.2093 12.7321C7.30512 13.3486 5.12872 12.9014 3.61304 11.3868C2.20643 9.98124 1.71717 7.99512 2.15546 6.18215C2.27778 5.71363 2.87915 5.54048 3.2359 5.89697Z" fill="#B4ACBC"/>
        </g>
      </g>
      <text id="ITEM_4_HEAD" x="0.0" y="-85.0" text-anchor="middle" font-weight="bold" font-size="28" fill="var(--primary-text)" data-bg-id="ITEM_4_BG" style="font-size: 30px; font-family: Inter, Segoe UI, Kalam, Roboto, Helvetica, Arial, sans-serif; font-weight: 700; letter-spacing:-0.4px;" data-final-font-size="30">
        <tspan x="0.0" dy="37.75px">Permanent Failure</tspan>
      </text>
      <rect id="ITEM_4_HEAD_FRAME" x="-310" y="-85" width="620" height="50" fill="none"/>
      <text id="ITEM_4_BODY" x="0.0" y="-20.0" text-anchor="middle" font-size="22" fill="var(--primary-text)" opacity="0.88" data-bg-id="ITEM_4_BG" style="font-size: 26px; font-family: Inter, Segoe UI, Kalam, Roboto, Helvetica, Arial, sans-serif; font-weight: 400;" data-final-font-size="26">
        <tspan x="0.0" dy="51.40px">Requires hardware repair or full replacement</tspan>
      </text>
      <rect id="ITEM_4_BODY_FRAME" x="-310" y="-20" width="620" height="155" fill="none"/>
    </g>
    <!-- Row 3 - cards at y=670 -->
    <g transform="translate(480.0, 670.0)">
      <rect id="ITEM_5_ACCENT_BG" x="-400" y="-110" width="800" height="245" rx="24" fill="var(--accent-5)" fill-opacity="0.15"/>
      <rect id="ITEM_5_BG" x="-400" y="-110" width="800" height="245" rx="18" fill="var(--panel)" stroke="var(--accent-5)" filter="url(#svg61b2bfa9-shadow)" stroke-width="3"/>
      <rect x="-388" y="-98" width="776" height="221" rx="16" fill="url(#svg61b2bfa9-myth-card-sheen)" opacity="0.92"/>
      <circle id="ITEM_5_PAD" cx="-330" cy="-40" r="46" fill="var(--icon-pad-bg)" stroke="var(--background)" stroke-width="2" stroke-opacity="0.65" opacity="0.94"/>
      <circle id="ITEM_5_PAD_INNER" cx="-330" cy="-40" r="35.88" fill="var(--accent-5)" fill-opacity="0.22"/>
      <circle cx="-330" cy="-40" r="34" fill="none" stroke="var(--accent-5)" stroke-width="3" stroke-dasharray="6 4"/>
      <g id="ITEM_5_ICON" transform="translate(-358, -68)" data-icon-size="56" stroke-dasharray="6 4">
        <g transform="translate(-13.00571428571429,-13.005714285714289) scale(2.562857142857143)">
          <path d="M13 4V2.79004C13 2.35231 13.3143 2 13.7048 2H18.2952C18.6857 2 19 2.35231 19 2.79004V4H22.23C23.21 4 24 4.78939 24 5.76864V28.2314C24 29.2106 23.21 30 22.23 30H9.77C8.79 30 8 29.2106 8 28.2314V5.76864C8 4.78939 8.79 4 9.77 4H13Z" fill="#9B9B9B"/>
          <path d="M24 6H8V28H24V6Z" fill="#86D72F"/>
          <path d="M15 12.5V13.43C15 13.74 15.26 14 15.57 14H16.43C16.74 14 17 13.74 17 13.42V12.5H17.93C18.24 12.5 18.5 12.24 18.49 11.92V11.07C18.49 10.76 18.24 10.5 17.92 10.5H17V9.57C17 9.26 16.74 9 16.42 9H15.57C15.26 9 15 9.26 15 9.57V10.5H14.07C13.76 10.5 13.5 10.75 13.5 11.07V11.93C13.5 12.24 13.76 12.5 14.07 12.5H15ZM17.93 25H14.07C13.75 25 13.5 24.74 13.5 24.43V23.58C13.5 23.26 13.76 23 14.07 23H17.92C18.24 23 18.49 23.26 18.49 23.57V24.42C18.5 24.74 18.24 25 17.93 25Z" fill="white"/>
        </g>
      </g>
      <text id="ITEM_5_HEAD" x="0.0" y="-85.0" text-anchor="middle" font-weight="bold" font-size="28" fill="var(--primary-text)" data-bg-id="ITEM_5_BG" style="font-size: 30px; font-family: Inter, Segoe UI, Kalam, Roboto, Helvetica, Arial, sans-serif; font-weight: 700; letter-spacing:-0.4px;" data-final-font-size="30">
        <tspan x="0.0" dy="37.75px">Precision Tradeoff</tspan>
      </text>
      <rect id="ITEM_5_HEAD_FRAME" x="-310" y="-85" width="620" height="50" fill="none"/>
      <text id="ITEM_5_BODY" x="0.0" y="-20.0" text-anchor="middle" font-size="22" fill="var(--primary-text)" opacity="0.88" data-bg-id="ITEM_5_BG" style="font-size: 26px; font-family: Inter, Segoe UI, Kalam, Roboto, Helvetica, Arial, sans-serif; font-weight: 400;" data-final-font-size="26">
        <tspan x="0.0" dy="51.40px">Dazzling requires less power than destruction</tspan>
      </text>
      <rect id="ITEM_5_BODY_FRAME" x="-310" y="-20" width="620" height="155" fill="none"/>
    </g>
  </g>
</svg>
