<?xml version='1.0' encoding='utf-8'?>
<svg xmlns="http://www.w3.org/2000/svg" width="1920" height="1080" viewBox="0 0 1920 1080" data-theme="light">
  <style>
        @font-face {
            font-family: 'Inter';
            src: url('assets/fonts/Inter-Regular.ttf') format('truetype');
            font-weight: 400;
            font-style: normal;
            font-display: swap;
        }
        @font-face {
            font-family: 'Inter';
            src: url('assets/fonts/Inter-Bold.ttf') format('truetype');
            font-weight: 600;
            font-style: normal;
            font-display: swap;
        }
        @font-face {
            font-family: 'Inter';
            src: url('assets/fonts/Inter-Bold.ttf') format('truetype');
            font-weight: 800;
            font-style: normal;
            font-display: swap;
        }
        
:root {
    --background: #f8fafc;
    --panel: #ffffff;
    --primary-text: #0f172a;
    --muted-text: #64748b;
    --inverse-text: #ffffff;
    --border: #e2e8f0;
    --shadow-color: #000000;
    --icon-pad-bg: #1e293b;
    --art-glow: #0891b2;
    --art-glow-opacity: 0.10;
    --art-sheen: #ffffff;
    --art-sheen-opacity: 0.34;
    --art-shadow: #0f172a;
    --art-shadow-opacity: 0.14;
    --art-muted-line: #94a3b8;
    --art-panel-tint: #f1f5f9;
    --font-family: 'Inter', 'Segoe UI', 'Kalam', Roboto, Helvetica, Arial, sans-serif;
    --radius-xl: 16px;
    --font-family-headline: 'Inter', 'Segoe UI', 'Kalam', Roboto, Helvetica, Arial, sans-serif;
    --font-family-body: 'Inter', 'Segoe UI', 'Kalam', Roboto, Helvetica, Arial, sans-serif;
    --font-heading: 'Inter', 'Segoe UI', 'Kalam', Roboto, Helvetica, Arial, sans-serif;
    --font-body: 'Inter', 'Segoe UI', 'Kalam', Roboto, Helvetica, Arial, sans-serif;
    --font-size-h1: 56px;
    --font-size-h2: 40px;
    --font-size-h3: 28px;
    --font-size-body: 24px;
    --font-size-caption: 18px;
    --secondary-text: var(--muted-text);
    --panel-border: var(--border);
    --font-weight-normal: 400;
    --font-weight-medium: 500;
    --font-weight-semibold: 600;
    --font-weight-bold: 700;
    --spacing-gutter-pct: 0.07;
    --spacing-top-pct: 0.15;
    --spacing-bottom-pct: 0.07;
    --spacing-title-y-pct: 0.055;
    --accent-1: #3b82f6;
    --accent-2: #22c55e;
    --accent-3: #f59e0b;
    --accent-4: #ec4899;
    --accent-5: #8b5cf6;
    --accent-6: #06b6d4;
}
:root[data-theme="dark"] {
    --background: #0f172a;
    --panel: #1e293b;
    --primary-text: #f1f5f9;
    --muted-text: #94a3b8;
    --inverse-text: #0f172a;
    --border: #334155;
    --shadow-color: #000000;
    --icon-pad-bg: #1e293b;
    --art-glow: #7dd3fc;
    --art-glow-opacity: 0.18;
    --art-sheen: #ffffff;
    --art-sheen-opacity: 0.18;
    --art-shadow: #000000;
    --art-shadow-opacity: 0.28;
    --art-muted-line: #64748b;
    --art-panel-tint: #1e293b;
    --accent-1: #93c5fd;
    --accent-2: #86efac;
    --accent-3: #fcd34d;
    --accent-4: #f9a8d4;
    --accent-5: #c4b5fd;
    --accent-6: #a5f3fc;
}
:root[data-theme="light"] {
    --background: #f8fafc;
    --panel: #ffffff;
    --primary-text: #0f172a;
    --muted-text: #64748b;
    --inverse-text: #ffffff;
    --border: #e2e8f0;
    --shadow-color: #000000;
    --icon-pad-bg: #1e293b;
    --art-glow: #0891b2;
    --art-glow-opacity: 0.10;
    --art-sheen: #ffffff;
    --art-sheen-opacity: 0.34;
    --art-shadow: #0f172a;
    --art-shadow-opacity: 0.14;
    --art-muted-line: #94a3b8;
    --art-panel-tint: #f1f5f9;
    --accent-1: #3b82f6;
    --accent-2: #22c55e;
    --accent-3: #f59e0b;
    --accent-4: #ec4899;
    --accent-5: #8b5cf6;
    --accent-6: #06b6d4;
}</style>
  <rect x="0" y="0" width="1.92E+3" height="1.08E+3" fill="#252a34" stroke="none" id="programmatic_background"/>
  <line id="HEADER_DECOR" x1="960.0" x2="1080.0" y1="107.0" y2="107.0" stroke="var(--accent-1)" stroke-width="6" stroke-linecap="round"/>
  <defs>
    <pattern id="svgca0adef8-napkin-hatch" patternUnits="userSpaceOnUse" width="12" height="12">
      <path d="M -3 12 L 12 -3 M 0 15 L 15 0" fill="none" stroke="var(--primary-text)" stroke-width="1" stroke-opacity="0.05"/>
    </pattern>
    <filter id="svgca0adef8-shadow" x="-30%" y="-30%" width="160%" height="160%">
      <feDropShadow dx="0" dy="2" stdDeviation="3" flood-color="#000000" flood-opacity="0.08"/>
      <feDropShadow dx="0" dy="6" stdDeviation="10" flood-color="#000000" flood-opacity="0.12"/>
    </filter>
    <filter id="svgca0adef8-soft-glow" x="-40%" y="-40%" width="180%" height="180%">
      <feDropShadow dx="0" dy="0" stdDeviation="6" flood-color="#000000" flood-opacity="0.12"/>
    </filter>
    <radialGradient id="svgca0adef8-universal-edge-vignette" cx="50%" cy="50%" r="72%">
      <stop offset="0%" stop-color="var(--background)" stop-opacity="0"/>
      <stop offset="72%" stop-color="var(--background)" stop-opacity="0.12"/>
      <stop offset="100%" stop-color="var(--primary-text)" stop-opacity="0.08"/>
    </radialGradient>
    <linearGradient id="svgca0adef8-universal-surface-sheen" x1="0%" y1="0%" x2="100%" y2="100%">
      <stop offset="0%" stop-color="var(--art-sheen)" stop-opacity="var(--art-sheen-opacity)"/>
      <stop offset="46%" stop-color="var(--art-sheen)" stop-opacity="0.035"/>
      <stop offset="100%" stop-color="var(--art-panel-tint)" stop-opacity="0.14"/>
    </linearGradient>
    <radialGradient id="svgca0adef8-universal-icon-aura" cx="50%" cy="42%" r="64%">
      <stop offset="0%" stop-color="var(--art-glow)" stop-opacity="var(--art-glow-opacity)"/>
      <stop offset="100%" stop-color="var(--background)" stop-opacity="0"/>
    </radialGradient>
    <filter id="svgca0adef8-text-glow" x="-20%" y="-20%" width="140%" height="140%">
      <feDropShadow dx="0" dy="0" stdDeviation="2" flood-color="#000000" flood-opacity="0.4"/>
    </filter>
    <marker id="svgca0adef8-arrowhead" markerWidth="10" markerHeight="7" refX="9" refY="3.5" orient="auto" markerUnits="strokeWidth">
      <polygon points="0 0, 10 3.5, 0 7" fill="var(--muted-text)" opacity="0.6"/>
    </marker>
  </defs>
  <rect width="100%" height="100%" fill="var(--background)" id="CANVAS_BG"/>
  <rect width="100%" height="100%" fill="url(#svgca0adef8-napkin-hatch)"/>
  <rect id="UNIVERSAL_EDGE_VIGNETTE" width="100%" height="100%" fill="url(#svgca0adef8-universal-edge-vignette)" opacity="0.62"/>
  <text id="TITLE" x="960.0" y="59" text-anchor="middle" font-weight="800" font-size="58" fill="#0f172a" style="font-size: 60px; font-family: Inter, Segoe UI, Kalam, Roboto, Helvetica, Arial, sans-serif; font-weight: 700; letter-spacing:-1.2px;" data-final-font-size="60">
    <tspan x="960.0" dy="68.00px">THOR vs. Mjölnir Evolution</tspan>
  </text>
  <rect id="TITLE_FRAME" x="134" y="44" width="1652" height="110" fill="none"/>
  <g id="DIAGRAM_SCALER">
    <line x1="960" y1="220" x2="960" y2="970" stroke="var(--border)" stroke-width="8" stroke-linecap="round" opacity="0.75"/>
    <line x1="960" y1="289.2" x2="914" y2="289.2" stroke="var(--accent-1)" stroke-width="4" stroke-linecap="round" opacity="0.55"/>
    <circle cx="960" cy="289.2" r="9" fill="var(--accent-1)" opacity="0.95" filter="url(#svgca0adef8-soft-glow)"/>
    <rect id="ITEM_1_BG" x="254.0" y="228.0" width="660.0" height="122.4" rx="61.2" fill="var(--panel)" stroke="var(--accent-1)" stroke-width="3" filter="url(#svgca0adef8-shadow)"/>
    <rect x="894.0" y="228.0" width="20" height="122.4" rx="10" fill="var(--accent-1)" fill-opacity="0.14"/>
    <circle id="ITEM_1_PAD" cx="828.0" cy="289.2" r="42" fill="var(--icon-pad-bg)" stroke="var(--primary-text)" opacity="0.92" fill-opacity="0.9" stroke-width="2"/>
    <circle id="ITEM_1_PAD_INNER" cx="828.0" cy="289.2" r="32.76" fill="var(--accent-3)" fill-opacity="0.22"/>
    <circle cx="828.0" cy="289.2" r="33.6" fill="none" stroke="var(--accent-1)" stroke-width="3" stroke-dasharray="6 4"/>
    <g id="ITEM_1_ICON" transform="translate(802.0, 263.2)" data-icon-size="52" stroke-dasharray="6 4">
      <g transform="translate(-11.439999999999998,-11.439999999999998) scale(2.34)" vector-effect="non-scaling-stroke" fill="#f1f5f9" fill-opacity="1.0" stroke="none">
        <path fill="#f1f5f9" d="M20.885 19.471a5.96 5.96 0 0 0 0-6.942L23 10.414l1.293 1.293a1 1 0 0 0 1.414 0l4-4a1 1 0 0 0 0-1.414l-4-4a1 1 0 0 0-1.414 0l-4 4a1 1 0 0 0 0 1.414L21.586 9l-2.115 2.115a5.96 5.96 0 0 0-6.942 0L10 8.585V2H2v8h6.586l2.529 2.529a5.96 5.96 0 0 0 0 6.942L9 21.586l-1.293-1.293a1 1 0 0 0-1.414 0l-4 4a1 1 0 0 0 0 1.414l4 4a1 1 0 0 0 1.414 0l4-4a1 1 0 0 0 0-1.414L10.414 23l2.115-2.115a5.96 5.96 0 0 0 6.942 0L22 23.415V30h8v-8h-6.586ZM25 4.414L27.586 7L25 9.586L22.414 7ZM7 27.586L4.414 25L7 22.414L9.586 25ZM8 8H4V4h4Zm4 8a4 4 0 1 1 4 4a4.005 4.005 0 0 1-4-4m12 8h4v4h-4Z" vector-effect="non-scaling-stroke" stroke="none"/>
      </g>
    </g>
    <text id="ITEM_1_HEAD" x="710.0" y="247.2" text-anchor="end" font-weight="bold" font-size="28" fill="var(--primary-text)" data-bg-id="ITEM_1_BG" fill-opacity="1.0" style="font-size: 30px; font-family: Inter, Segoe UI, Kalam, Roboto, Helvetica, Arial, sans-serif; font-weight: 700; letter-spacing:-0.4px;" data-final-font-size="30">
      <tspan x="710.0" dy="28.25px">Proof of Concept</tspan>
    </text>
    <rect id="ITEM_1_HEAD_FRAME" x="290.0" y="247.2" width="420.0" height="40" fill="none"/>
    <text id="ITEM_1_BODY" x="710.0" y="291.2" text-anchor="end" font-size="20" fill="var(--primary-text)" data-bg-id="ITEM_1_BG" style="font-size: 26px; font-family: Inter, Segoe UI, Kalam, Roboto, Helvetica, Arial, sans-serif; font-weight: 400;" data-final-font-size="26">
      <tspan x="710.0" dy="20.84px">THOR demonstrated successful</tspan>
      <tspan x="710.0" dy="29.90px">swarm engagement in tests</tspan>
    </text>
    <rect id="ITEM_1_BODY_FRAME" x="290.0" y="291.2" width="420.0" height="60" fill="none"/>
    <line x1="960" y1="439.6" x2="1006" y2="439.6" stroke="var(--accent-2)" stroke-width="4" stroke-linecap="round" opacity="0.55"/>
    <circle cx="960" cy="439.6" r="9" fill="var(--accent-2)" opacity="0.95" filter="url(#svgca0adef8-soft-glow)"/>
    <rect id="ITEM_2_BG" x="1006.0" y="378.4" width="660.0" height="122.4" rx="61.2" fill="var(--panel)" stroke="var(--accent-2)" stroke-width="3" filter="url(#svgca0adef8-shadow)"/>
    <rect x="1006.0" y="378.4" width="20" height="122.4" rx="10" fill="var(--accent-2)" fill-opacity="0.14"/>
    <circle id="ITEM_2_PAD" cx="1092.0" cy="439.6" r="42" fill="var(--icon-pad-bg)" stroke="var(--primary-text)" opacity="0.92" fill-opacity="0.9" stroke-width="2"/>
    <circle id="ITEM_2_PAD_INNER" cx="1092.0" cy="439.6" r="32.76" fill="var(--accent-4)" fill-opacity="0.22"/>
    <circle cx="1092.0" cy="439.6" r="33.6" fill="none" stroke="var(--accent-2)" stroke-width="3" stroke-dasharray="6 4"/>
    <g id="ITEM_2_ICON" transform="translate(1066.0, 413.6)" data-icon-size="52" stroke-dasharray="6 4">
      <g transform="translate(-8.943999999999997,-8.943999999999996) scale(0.27299999999999996)" vector-effect="non-scaling-stroke" stroke-width="2.34" stroke-linecap="round" stroke-linejoin="round" stroke-opacity="1.0">
        <line x1="128" y1="48" x2="128" y2="208" fill="none" stroke="#f1f5f9" vector-effect="non-scaling-stroke"/>
        <path d="M128,208l106.2-30.34A8,8,0,0,0,240,170V86a8,8,0,0,0-5.8-7.69L128,48,22.87,63A8,8,0,0,0,16,70.94V185.06A8,8,0,0,0,22.87,193Z" fill="none" stroke="#f1f5f9" vector-effect="non-scaling-stroke"/>
        <line x1="96" y1="128" x2="48" y2="128" fill="none" stroke="#f1f5f9" vector-effect="non-scaling-stroke"/>
        <line x1="72" y1="56" x2="72" y2="200" fill="none" stroke="#f1f5f9" vector-effect="non-scaling-stroke"/>
      </g>
    </g>
    <text id="ITEM_2_HEAD" x="1162.0" y="397.6" text-anchor="start" font-weight="bold" font-size="28" fill="var(--primary-text)" data-bg-id="ITEM_2_BG" fill-opacity="1.0" style="font-size: 30px; font-family: Inter, Segoe UI, Kalam, Roboto, Helvetica, Arial, sans-serif; font-weight: 700; letter-spacing:-0.4px;" data-final-font-size="30">
      <tspan x="1162.0" dy="28.25px">Logistical Foundation</tspan>
    </text>
    <rect id="ITEM_2_HEAD_FRAME" x="1162.0" y="397.6" width="420.0" height="40" fill="none"/>
    <text id="ITEM_2_BODY" x="1162.0" y="441.6" text-anchor="start" font-size="20" fill="var(--primary-text)" data-bg-id="ITEM_2_BG" style="font-size: 24px; font-family: Inter, Segoe UI, Kalam, Roboto, Helvetica, Arial, sans-serif; font-weight: 400;" data-final-font-size="24">
      <tspan x="1162.0" dy="20.16px">Established containerized transport</tspan>
      <tspan x="1162.0" dy="27.60px">and rapid setup standards</tspan>
    </text>
    <rect id="ITEM_2_BODY_FRAME" x="1162.0" y="441.6" width="420.0" height="60" fill="none"/>
    <line x1="960" y1="590.0" x2="914" y2="590.0" stroke="var(--accent-3)" stroke-width="4" stroke-linecap="round" opacity="0.55"/>
    <circle cx="960" cy="590.0" r="9" fill="var(--accent-3)" opacity="0.95" filter="url(#svgca0adef8-soft-glow)"/>
    <rect id="ITEM_3_BG" x="254.0" y="528.8" width="660.0" height="122.4" rx="61.2" fill="var(--panel)" stroke="var(--accent-3)" stroke-width="3" filter="url(#svgca0adef8-shadow)"/>
    <rect x="894.0" y="528.8" width="20" height="122.4" rx="10" fill="var(--accent-3)" fill-opacity="0.14"/>
    <circle id="ITEM_3_PAD" cx="828.0" cy="590.0" r="42" fill="var(--icon-pad-bg)" stroke="var(--primary-text)" opacity="0.92" fill-opacity="0.9" stroke-width="2"/>
    <circle id="ITEM_3_PAD_INNER" cx="828.0" cy="590.0" r="32.76" fill="var(--accent-5)" fill-opacity="0.22"/>
    <circle cx="828.0" cy="590.0" r="33.6" fill="none" stroke="var(--accent-3)" stroke-width="3" stroke-dasharray="6 4"/>
    <g id="ITEM_3_ICON" transform="translate(802.0, 564.0)" data-icon-size="52" stroke-dasharray="6 4">
      <g transform="translate(-11.439999999999998,-11.439999999999998) scale(2.34)">
        <path d="M5 20.88C5 20.96 5.01 21 5.03 21H7.97C7.99 21 8 20.96 8 20.88V17L7.5 15.5L8 14V11L7.5 9.5L8 8V5L6.5 4.5L5 5V8L5.5 9.5L5 11V14L5.5 15.5L5 17V20.88ZM12 20.88C12 20.96 12.01 21 12.03 21H14.97C14.99 21 15 20.96 15 20.88V17L14.5 15.5L15 14V11L14.5 9.5L15 8V5L13.5 4.5L12 5V8L12.5 9.5L12 11V14V17V20.88ZM17.866 30H30V13.13C30 12.5 29.4887 12 28.8672 12H19.1328C18.5012 12 18 12.51 18 13.13V17L17.866 17.2167V30Z" fill="#D3D3D3"/>
        <path d="M2.20988 20.91L9.45534 17.28C9.70519 17.16 9.995 17.34 9.995 17.61V20.4C9.995 20.68 10.2848 20.86 10.5347 20.73L18 17V30H15.9671L13.4949 28.4635L11.0227 30H8.93989L6.43853 28.4635L3.93717 30H2V21.23C2 21.1 2.07996 20.97 2.20988 20.91Z" fill="#9B9B9B"/>
        <path d="M20 14.5C20 14.2239 20.2239 14 20.5 14H21.5C21.7761 14 22 14.2239 22 14.5V15.5C22 15.7761 21.7761 16 21.5 16H20.5C20.2239 16 20 15.7761 20 15.5V14.5Z" fill="#83CBFF"/>
        <path d="M20 17.5C20 17.2239 20.2239 17 20.5 17H21.5C21.7761 17 22 17.2239 22 17.5V18.5C22 18.7761 21.7761 19 21.5 19H20.5C20.2239 19 20 18.7761 20 18.5V17.5Z" fill="#83CBFF"/>
        <path d="M20 20.5C20 20.2239 20.2239 20 20.5 20H21.5C21.7761 20 22 20.2239 22 20.5V21.5C22 21.7761 21.7761 22 21.5 22H20.5C20.2239 22 20 21.7761 20 21.5V20.5Z" fill="#83CBFF"/>
        <path d="M23 14.5C23 14.2239 23.2239 14 23.5 14H24.5C24.7761 14 25 14.2239 25 14.5V15.5C25 15.7761 24.7761 16 24.5 16H23.5C23.2239 16 23 15.7761 23 15.5V14.5Z" fill="#83CBFF"/>
        <path d="M23 17.5C23 17.2239 23.2239 17 23.5 17H24.5C24.7761 17 25 17.2239 25 17.5V18.5C25 18.7761 24.7761 19 24.5 19H23.5C23.2239 19 23 18.7761 23 18.5V17.5Z" fill="#83CBFF"/>
        <path d="M23 20.5C23 20.2239 23.2239 20 23.5 20H24.5C24.7761 20 25 20.2239 25 20.5V21.5C25 21.7761 24.7761 22 24.5 22H23.5C23.2239 22 23 21.7761 23 21.5V20.5Z" fill="#83CBFF"/>
        <path d="M26 14.5C26 14.2239 26.2239 14 26.5 14H27.5C27.7761 14 28 14.2239 28 14.5V15.5C28 15.7761 27.7761 16 27.5 16H26.5C26.2239 16 26 15.7761 26 15.5V14.5Z" fill="#83CBFF"/>
        <path d="M26 17.5C26 17.2239 26.2239 17 26.5 17H27.5C27.7761 17 28 17.2239 28 17.5V18.5C28 18.7761 27.7761 19 27.5 19H26.5C26.2239 19 26 18.7761 26 18.5V17.5Z" fill="#83CBFF"/>
        <path d="M26 20.5C26 20.2239 26.2239 20 26.5 20H27.5C27.7761 20 28 20.2239 28 20.5V21.5C28 21.7761 27.7761 22 27.5 22H26.5C26.2239 22 26 21.7761 26 21.5V20.5Z" fill="#83CBFF"/>
        <path d="M21 30H27V26.3628C27 26.1623 26.8294 26 26.6187 26H21.3813C21.1706 26 21 26.1623 21 26.3628V30ZM9 30H4V27.38C4 27.17 4.17033 27 4.38075 27H8.61925C8.82967 27 9 27.17 9 27.38V30ZM16 30H11V27.38C11 27.17 11.1703 27 11.3808 27H15.6192C15.8297 27 16 27.17 16 27.38V30Z" fill="#1C1C1C"/>
        <path d="M8 2.51C8 2.23 7.77001 2 7.49001 2H5.51001C5.23001 2 5 2.23 5 2.51V5H8V2.51ZM8 14H5V17H8V14ZM5 8H8V11H5V8ZM15 2.51C15 2.23 14.77 2 14.49 2H12.51C12.23 2 12 2.23 12 2.51V5H15V2.51ZM15 8H12V11H15V8ZM12 14H15V17H12V14Z" fill="#F8312F"/>
      </g>
    </g>
    <text id="ITEM_3_HEAD" x="710.0" y="548.0" text-anchor="end" font-weight="bold" font-size="28" fill="var(--primary-text)" data-bg-id="ITEM_3_BG" fill-opacity="1.0" style="font-size: 30px; font-family: Inter, Segoe UI, Kalam, Roboto, Helvetica, Arial, sans-serif; font-weight: 700; letter-spacing:-0.4px;" data-final-font-size="30">
      <tspan x="710.0" dy="28.25px">Operational Scaling</tspan>
    </text>
    <rect id="ITEM_3_HEAD_FRAME" x="290.0" y="548.0" width="420.0" height="40" fill="none"/>
    <text id="ITEM_3_BODY" x="710.0" y="592.0" text-anchor="end" font-size="20" fill="var(--primary-text)" data-bg-id="ITEM_3_BG" style="font-size: 26px; font-family: Inter, Segoe UI, Kalam, Roboto, Helvetica, Arial, sans-serif; font-weight: 400;" data-final-font-size="26">
      <tspan x="710.0" dy="20.84px">Mjölnir aims for improved</tspan>
      <tspan x="710.0" dy="29.90px">reliability and manufacturing</tspan>
    </text>
    <rect id="ITEM_3_BODY_FRAME" x="290.0" y="592.0" width="420.0" height="60" fill="none"/>
    <line x1="960" y1="740.4" x2="1006" y2="740.4" stroke="var(--accent-4)" stroke-width="4" stroke-linecap="round" opacity="0.55"/>
    <circle cx="960" cy="740.4" r="9" fill="var(--accent-4)" opacity="0.95" filter="url(#svgca0adef8-soft-glow)"/>
    <rect id="ITEM_4_BG" x="1006.0" y="679.2" width="660.0" height="122.4" rx="61.2" fill="var(--panel)" stroke="var(--accent-4)" stroke-width="3" filter="url(#svgca0adef8-shadow)"/>
    <rect x="1006.0" y="679.2" width="20" height="122.4" rx="10" fill="var(--accent-4)" fill-opacity="0.14"/>
    <circle id="ITEM_4_PAD" cx="1092.0" cy="740.4" r="42" fill="var(--icon-pad-bg)" stroke="var(--primary-text)" opacity="0.92" fill-opacity="0.9" stroke-width="2"/>
    <circle id="ITEM_4_PAD_INNER" cx="1092.0" cy="740.4" r="32.76" fill="var(--accent-6)" fill-opacity="0.22"/>
    <circle cx="1092.0" cy="740.4" r="33.6" fill="none" stroke="var(--accent-4)" stroke-width="3" stroke-dasharray="6 4"/>
    <g id="ITEM_4_ICON" transform="translate(1066.0, 714.4)" data-icon-size="52" stroke-dasharray="6 4">
      <g transform="translate(-8.943999999999997,-4.575999999999995) scale(2.1839999999999997)">
        <path d="M27.9882 3.84328C24.0853 0.0393162 17.8656 0.0562961 13.9997 3.87007C13.4623 3.67545 12.883 3.56944 12.2804 3.56944C10.4752 3.56944 8.89299 4.51693 8.00116 5.93871C4.09183 6.18181 1 9.42597 1 13.3969C1 15.1533 1.61205 16.77 2.62341 18.0489C3.99738 19.8454 6.15767 21 8.5931 21H21.3084C24.4651 21 27.2531 19.4454 28.9564 17.0672C31.9727 13.1061 31.6493 7.4153 27.9882 3.84328Z" fill="#B4ACBC"/>
        <path d="M14.575 4.70971C18.0419 1.15266 23.7332 1.09254 27.2902 4.55941C30.5868 7.77578 30.8774 12.9059 28.152 16.473C26.6289 18.6072 24.134 20 21.3084 20H8.5931C6.4789 20 4.60517 18.998 3.4128 17.4349C2.53105 16.3227 2 14.9199 2 13.3969C2 9.81983 4.89575 6.9241 8.47286 6.9241C8.51597 6.9241 8.55898 6.92452 8.60189 6.92536C9.24265 5.53472 10.6488 4.56944 12.2804 4.56944C12.9903 4.56944 13.6576 4.75221 14.2377 5.07325C14.346 4.94978 14.4584 4.82855 14.575 4.70971Z" fill="#F3EEF8"/>
        <path d="M8.70995 22.9864L6.3186 26.2577C5.72852 27.0651 4.60014 27.2411 3.79267 26.651C2.9852 26.061 2.80921 24.9326 3.39929 24.1251L5.79063 20.8538C6.38071 20.0464 7.5091 19.8704 8.31657 20.4604C9.12403 21.0505 9.30003 22.1789 8.70995 22.9864Z" fill="#3F5FFF"/>
        <path d="M15.3154 22.9864L12.9241 26.2577C12.334 27.0651 11.2056 27.2411 10.3981 26.651C9.59067 26.061 9.41468 24.9326 10.0048 24.1251L12.3961 20.8538C12.9862 20.0464 14.1146 19.8704 14.922 20.4604C15.7295 21.0505 15.9055 22.1789 15.3154 22.9864Z" fill="#3F5FFF"/>
        <path d="M19.5295 26.2577L21.9209 22.9864C22.511 22.1789 22.335 21.0505 21.5275 20.4604C20.72 19.8704 19.5916 20.0464 19.0016 20.8538L16.6102 24.1251C16.0202 24.9326 16.1961 26.061 17.0036 26.651C17.8111 27.2411 18.9395 27.0651 19.5295 26.2577Z" fill="#3F5FFF"/>
      </g>
    </g>
    <text id="ITEM_4_HEAD" x="1162.0" y="698.4" text-anchor="start" font-weight="bold" font-size="28" fill="var(--primary-text)" data-bg-id="ITEM_4_BG" fill-opacity="1.0" style="font-size: 30px; font-family: Inter, Segoe UI, Kalam, Roboto, Helvetica, Arial, sans-serif; font-weight: 700; letter-spacing:-0.4px;" data-final-font-size="30">
      <tspan x="1162.0" dy="28.25px">Durability Goals</tspan>
    </text>
    <rect id="ITEM_4_HEAD_FRAME" x="1162.0" y="698.4" width="420.0" height="40" fill="none"/>
    <text id="ITEM_4_BODY" x="1162.0" y="742.4" text-anchor="start" font-size="20" fill="var(--primary-text)" data-bg-id="ITEM_4_BG" style="font-size: 26px; font-family: Inter, Segoe UI, Kalam, Roboto, Helvetica, Arial, sans-serif; font-weight: 400;" data-final-font-size="26">
      <tspan x="1162.0" dy="20.84px">Future systems must withstand</tspan>
      <tspan x="1162.0" dy="29.90px">adverse weather conditions</tspan>
    </text>
    <rect id="ITEM_4_BODY_FRAME" x="1162.0" y="742.4" width="420.0" height="60" fill="none"/>
    <line x1="960" y1="890.8" x2="914" y2="890.8" stroke="var(--accent-5)" stroke-width="4" stroke-linecap="round" opacity="0.55"/>
    <circle cx="960" cy="890.8" r="9" fill="var(--accent-5)" opacity="0.95" filter="url(#svgca0adef8-soft-glow)"/>
    <rect id="ITEM_5_BG" x="254.0" y="829.6" width="660.0" height="122.4" rx="61.2" fill="var(--panel)" stroke="var(--accent-5)" stroke-width="3" filter="url(#svgca0adef8-shadow)"/>
    <rect x="894.0" y="829.6" width="20" height="122.4" rx="10" fill="var(--accent-5)" fill-opacity="0.14"/>
    <circle id="ITEM_5_PAD" cx="828.0" cy="890.8" r="42" fill="var(--icon-pad-bg)" stroke="var(--primary-text)" opacity="0.92" fill-opacity="0.9" stroke-width="2"/>
    <circle id="ITEM_5_PAD_INNER" cx="828.0" cy="890.8" r="32.76" fill="var(--accent-1)" fill-opacity="0.22"/>
    <circle cx="828.0" cy="890.8" r="33.6" fill="none" stroke="var(--accent-5)" stroke-width="3" stroke-dasharray="6 4"/>
    <g id="ITEM_5_ICON" transform="translate(802.0, 864.8)" data-icon-size="52" stroke-dasharray="6 4">
      <g transform="translate(-9.536271186440677,-9.536271186440676) scale(2.9613559322033898)" vector-effect="non-scaling-stroke" stroke-width="2.34" stroke-linecap="round" stroke-linejoin="round" stroke-opacity="1.0">
        <path d="M20 13c0 5-3.5 7.5-7.66 8.95a1 1 0 0 1-.67-.01C7.5 20.5 4 18 4 13V6a1 1 0 0 1 1-1c2 0 4.5-1.2 6.24-2.72a1.17 1.17 0 0 1 1.52 0C14.51 3.81 17 5 19 5a1 1 0 0 1 1 1z" vector-effect="non-scaling-stroke" fill="none" stroke="#f1f5f9"/>
        <path d="M12 8v4" vector-effect="non-scaling-stroke" fill="none" stroke="#f1f5f9"/>
        <path d="M12 16h.01" vector-effect="non-scaling-stroke" fill="none" stroke="#f1f5f9"/>
      </g>
    </g>
    <text id="ITEM_5_HEAD" x="710.0" y="848.8" text-anchor="end" font-weight="bold" font-size="28" fill="var(--primary-text)" data-bg-id="ITEM_5_BG" fill-opacity="1.0" style="font-size: 30px; font-family: Inter, Segoe UI, Kalam, Roboto, Helvetica, Arial, sans-serif; font-weight: 700; letter-spacing:-0.4px;" data-final-font-size="30">
      <tspan x="710.0" dy="28.25px">Fielded Capability</tspan>
    </text>
    <rect id="ITEM_5_HEAD_FRAME" x="290.0" y="848.8" width="420.0" height="40" fill="none"/>
    <text id="ITEM_5_BODY" x="710.0" y="892.8" text-anchor="end" font-size="20" fill="var(--primary-text)" data-bg-id="ITEM_5_BG" style="font-size: 26px; font-family: Inter, Segoe UI, Kalam, Roboto, Helvetica, Arial, sans-serif; font-weight: 400;" data-final-font-size="26">
      <tspan x="710.0" dy="20.84px">Transitioning from prototype</tspan>
      <tspan x="710.0" dy="29.90px">to routine airbase protection</tspan>
    </text>
    <rect id="ITEM_5_BODY_FRAME" x="290.0" y="892.8" width="420.0" height="60" fill="none"/>
  </g>
</svg>
