<?xml version='1.0' encoding='utf-8'?>
<svg xmlns="http://www.w3.org/2000/svg" width="1920" height="1080" viewBox="0 0 1920 1080" data-theme="light">
  <style>
        @font-face {
            font-family: 'Inter';
            src: url('assets/fonts/Inter-Regular.ttf') format('truetype');
            font-weight: 400;
            font-style: normal;
            font-display: swap;
        }
        @font-face {
            font-family: 'Inter';
            src: url('assets/fonts/Inter-Bold.ttf') format('truetype');
            font-weight: 600;
            font-style: normal;
            font-display: swap;
        }
        @font-face {
            font-family: 'Inter';
            src: url('assets/fonts/Inter-Bold.ttf') format('truetype');
            font-weight: 800;
            font-style: normal;
            font-display: swap;
        }
        
:root {
    --background: #f8fafc;
    --panel: #ffffff;
    --primary-text: #0f172a;
    --muted-text: #64748b;
    --inverse-text: #ffffff;
    --border: #e2e8f0;
    --shadow-color: #000000;
    --icon-pad-bg: #1e293b;
    --art-glow: #0891b2;
    --art-glow-opacity: 0.10;
    --art-sheen: #ffffff;
    --art-sheen-opacity: 0.34;
    --art-shadow: #0f172a;
    --art-shadow-opacity: 0.14;
    --art-muted-line: #94a3b8;
    --art-panel-tint: #f1f5f9;
    --font-family: 'Inter', 'Segoe UI', 'Kalam', Roboto, Helvetica, Arial, sans-serif;
    --radius-xl: 16px;
    --font-family-headline: 'Inter', 'Segoe UI', 'Kalam', Roboto, Helvetica, Arial, sans-serif;
    --font-family-body: 'Inter', 'Segoe UI', 'Kalam', Roboto, Helvetica, Arial, sans-serif;
    --font-heading: 'Inter', 'Segoe UI', 'Kalam', Roboto, Helvetica, Arial, sans-serif;
    --font-body: 'Inter', 'Segoe UI', 'Kalam', Roboto, Helvetica, Arial, sans-serif;
    --font-size-h1: 56px;
    --font-size-h2: 40px;
    --font-size-h3: 28px;
    --font-size-body: 24px;
    --font-size-caption: 18px;
    --secondary-text: var(--muted-text);
    --panel-border: var(--border);
    --font-weight-normal: 400;
    --font-weight-medium: 500;
    --font-weight-semibold: 600;
    --font-weight-bold: 700;
    --spacing-gutter-pct: 0.07;
    --spacing-top-pct: 0.15;
    --spacing-bottom-pct: 0.07;
    --spacing-title-y-pct: 0.055;
    --accent-1: #2563eb;
    --accent-2: #16a34a;
    --accent-3: #ea580c;
    --accent-4: #7c3aed;
    --accent-5: #0284c7;
    --accent-6: #475569;
}
:root[data-theme="dark"] {
    --background: #0f172a;
    --panel: #1e293b;
    --primary-text: #f1f5f9;
    --muted-text: #94a3b8;
    --inverse-text: #0f172a;
    --border: #334155;
    --shadow-color: #000000;
    --icon-pad-bg: #1e293b;
    --art-glow: #7dd3fc;
    --art-glow-opacity: 0.18;
    --art-sheen: #ffffff;
    --art-sheen-opacity: 0.18;
    --art-shadow: #000000;
    --art-shadow-opacity: 0.28;
    --art-muted-line: #64748b;
    --art-panel-tint: #1e293b;
    --accent-1: #60a5fa;
    --accent-2: #4ade80;
    --accent-3: #f97316;
    --accent-4: #a78bfa;
    --accent-5: #38bdf8;
    --accent-6: #94a3b8;
}
:root[data-theme="light"] {
    --background: #f8fafc;
    --panel: #ffffff;
    --primary-text: #0f172a;
    --muted-text: #64748b;
    --inverse-text: #ffffff;
    --border: #e2e8f0;
    --shadow-color: #000000;
    --icon-pad-bg: #1e293b;
    --art-glow: #0891b2;
    --art-glow-opacity: 0.10;
    --art-sheen: #ffffff;
    --art-sheen-opacity: 0.34;
    --art-shadow: #0f172a;
    --art-shadow-opacity: 0.14;
    --art-muted-line: #94a3b8;
    --art-panel-tint: #f1f5f9;
    --accent-1: #2563eb;
    --accent-2: #16a34a;
    --accent-3: #ea580c;
    --accent-4: #7c3aed;
    --accent-5: #0284c7;
    --accent-6: #475569;
}</style>
  <rect x="0" y="0" width="1.92E+3" height="1.08E+3" fill="#252a34" stroke="none" id="programmatic_background"/>
  <line id="HEADER_DECOR" x1="960.0" x2="1080.0" y1="125.0" y2="125.0" stroke="var(--accent-1)" stroke-width="6" stroke-linecap="round"/>
  <defs>
    <pattern id="svgea55fb66-napkin-hatch" patternUnits="userSpaceOnUse" width="12" height="12">
      <path d="M -3 12 L 12 -3 M 0 15 L 15 0" fill="none" stroke="var(--primary-text)" stroke-width="1" stroke-opacity="0.05"/>
    </pattern>
    <filter id="svgea55fb66-shadow" x="-30%" y="-30%" width="160%" height="160%">
      <feDropShadow dx="0" dy="3" stdDeviation="6" flood-color="#000000" flood-opacity="0.10"/>
      <feDropShadow dx="0" dy="8" stdDeviation="12" flood-color="#000000" flood-opacity="0.16"/>
    </filter>
    <marker id="svgea55fb66-arrowhead" markerWidth="12" markerHeight="12" refX="10" refY="6" orient="auto">
      <path d="M 0 0 L 12 6 L 0 12 Z" fill="var(--muted-text)"/>
    </marker>
    <radialGradient id="svgea55fb66-universal-edge-vignette" cx="50%" cy="50%" r="72%">
      <stop offset="0%" stop-color="var(--background)" stop-opacity="0"/>
      <stop offset="72%" stop-color="var(--background)" stop-opacity="0.12"/>
      <stop offset="100%" stop-color="var(--primary-text)" stop-opacity="0.08"/>
    </radialGradient>
    <linearGradient id="svgea55fb66-universal-surface-sheen" x1="0%" y1="0%" x2="100%" y2="100%">
      <stop offset="0%" stop-color="var(--art-sheen)" stop-opacity="var(--art-sheen-opacity)"/>
      <stop offset="46%" stop-color="var(--art-sheen)" stop-opacity="0.035"/>
      <stop offset="100%" stop-color="var(--art-panel-tint)" stop-opacity="0.14"/>
    </linearGradient>
    <radialGradient id="svgea55fb66-universal-icon-aura" cx="50%" cy="42%" r="64%">
      <stop offset="0%" stop-color="var(--art-glow)" stop-opacity="var(--art-glow-opacity)"/>
      <stop offset="100%" stop-color="var(--background)" stop-opacity="0"/>
    </radialGradient>
    <filter id="svgea55fb66-text-glow" x="-20%" y="-20%" width="140%" height="140%">
      <feDropShadow dx="0" dy="0" stdDeviation="2" flood-color="#000000" flood-opacity="0.4"/>
    </filter>
  </defs>
  <rect width="100%" height="100%" fill="var(--background)" id="CANVAS_BG"/>
  <rect width="100%" height="100%" fill="url(#svgea55fb66-napkin-hatch)"/>
  <rect id="UNIVERSAL_EDGE_VIGNETTE" width="100%" height="100%" fill="url(#svgea55fb66-universal-edge-vignette)" opacity="0.62"/>
  <text id="TITLE" x="960.0" y="59" text-anchor="middle" font-size="58" font-weight="800" fill="#0f172a" style="font-size: 60px; font-family: Inter, Segoe UI, Kalam, Roboto, Helvetica, Arial, sans-serif; font-weight: 700; letter-spacing:-1.2px;" data-final-font-size="60">
    <tspan x="960.0" dy="68.00px">Laser Engagement Sequence Steps</tspan>
  </text>
  <rect id="TITLE_FRAME" x="134" y="56" width="1652" height="98" fill="none"/>
  <rect x="120" y="165" width="1680" height="820" rx="40" fill="var(--panel)" fill-opacity="0.22" stroke="var(--muted-text)" stroke-width="2.4" opacity="0.92"/>
  <path d="M 272.0 282.0 Q 319.5 282.0 367.0 418.0 Q 414.5 418.0 462.0 554.0 Q 509.5 554.0 557.0 690.0 Q 604.5 690.0 652.0 826.0" fill="none" stroke="var(--muted-text)" stroke-width="10" stroke-linecap="round" stroke-linejoin="round" opacity="0.36" marker-end="url(#svgea55fb66-arrowhead)"/>
  <g id="DIAGRAM_MAIN" transform="translate(-60 -20) scale(1.08)">
    <g filter="url(#svgea55fb66-shadow)">
      <rect id="ITEM_1_BG" x="190.0" y="210.0" width="980" height="144" rx="24" fill="var(--panel)" fill-opacity="0.97" stroke="var(--accent-1)" stroke-width="2.5"/>
      <rect x="190.0" y="210.0" width="980" height="144" rx="16" fill="url(#svgea55fb66-universal-surface-sheen)" opacity="0.86"/>
      <rect x="190.0" y="210.0" width="980" height="18" rx="9" fill="var(--accent-1)" fill-opacity="0.55"/>
      <circle id="ITEM_1_PAD" cx="272.0" cy="282.0" r="40" fill="var(--icon-pad-bg)" opacity="0.95" fill-opacity="0.9" stroke-width="2" stroke="var(--primary-text)"/>
      <circle id="ITEM_1_PAD_INNER" cx="272.0" cy="282.0" r="31.20" fill="var(--accent-2)" fill-opacity="0.22"/>
      <circle cx="272.0" cy="282.0" r="32" fill="none" stroke="var(--accent-1)" stroke-width="3" stroke-dasharray="6 4"/>
      <g id="ITEM_1_ICON" transform="translate(242.0, 252.0)" data-icon-size="60" stroke-dasharray="6 4">
        <g transform="translate(-3.844067796610173,-3.844067796610173) scale(2.820338983050848)" vector-effect="non-scaling-stroke" stroke-width="2.43" stroke-linecap="round" stroke-linejoin="round" stroke-opacity="1.0">
          <path d="M19.07 4.93A10 10 0 0 0 6.99 3.34" vector-effect="non-scaling-stroke" fill="none" stroke="#f1f5f9"/>
          <path d="M4 6h.01" vector-effect="non-scaling-stroke" fill="none" stroke="#f1f5f9"/>
          <path d="M2.29 9.62A10 10 0 1 0 21.31 8.35" vector-effect="non-scaling-stroke" fill="none" stroke="#f1f5f9"/>
          <path d="M16.24 7.76A6 6 0 1 0 8.23 16.67" vector-effect="non-scaling-stroke" fill="none" stroke="#f1f5f9"/>
          <path d="M12 18h.01" vector-effect="non-scaling-stroke" fill="none" stroke="#f1f5f9"/>
          <path d="M17.99 11.66A6 6 0 0 1 15.77 16.67" vector-effect="non-scaling-stroke" fill="none" stroke="#f1f5f9"/>
          <circle cx="12" cy="12" r="2" vector-effect="non-scaling-stroke" fill="none" stroke="#f1f5f9"/>
          <path d="m13.41 10.59 5.66-5.66" vector-effect="non-scaling-stroke" fill="none" stroke="#f1f5f9"/>
        </g>
      </g>
      <rect x="345.0" y="238.0" width="690.0" height="24" rx="12" fill="var(--accent-1)" fill-opacity="0.08"/>
      <text x="1136.0" y="252.0" text-anchor="end" font-size="17" font-weight="800" fill="var(--accent-1)" opacity="0.72">01</text>
      <text id="ITEM_1_HEAD" x="358.0" y="228.0" text-anchor="start" font-weight="800" font-size="30" fill="var(--primary-text)" data-bg-id="ITEM_1_BG" fill-opacity="1.0" style="font-size: 30px; font-family: Inter, Segoe UI, Kalam, Roboto, Helvetica, Arial, sans-serif; font-weight: 700; letter-spacing:-0.4px;" data-final-font-size="30">
        <tspan x="358.0" dy="28.31px">Detection Phase</tspan>
      </text>
      <rect id="ITEM_1_HEAD_FRAME" x="358.0" y="228.0" width="620.0" height="34" fill="none"/>
      <text id="ITEM_1_BODY" x="358.0" y="270.0" text-anchor="start" font-size="23" fill="var(--primary-text)" data-bg-id="ITEM_1_BG" style="font-size: 26px; font-family: Inter, Segoe UI, Kalam, Roboto, Helvetica, Arial, sans-serif; font-weight: 400;" data-final-font-size="26">
        <tspan x="358.0" dy="23.94px">System identifies and classifies the incoming</tspan>
        <tspan x="358.0" dy="29.90px">drone target</tspan>
      </text>
      <rect id="ITEM_1_BODY_FRAME" x="358.0" y="270.0" width="650.0" height="64.0" fill="none"/>
    </g>
    <g filter="url(#svgea55fb66-shadow)">
      <rect id="ITEM_2_BG" x="285.0" y="346.0" width="980" height="144" rx="24" fill="var(--panel)" fill-opacity="0.97" stroke="var(--accent-2)" stroke-width="2.5"/>
      <rect x="285.0" y="346.0" width="980" height="144" rx="16" fill="url(#svgea55fb66-universal-surface-sheen)" opacity="0.86"/>
      <rect x="285.0" y="346.0" width="980" height="18" rx="9" fill="var(--accent-2)" fill-opacity="0.55"/>
      <circle id="ITEM_2_PAD" cx="367.0" cy="418.0" r="40" fill="var(--icon-pad-bg)" opacity="0.95" fill-opacity="0.9" stroke-width="2" stroke="var(--primary-text)"/>
      <circle id="ITEM_2_PAD_INNER" cx="367.0" cy="418.0" r="31.20" fill="var(--accent-3)" fill-opacity="0.22"/>
      <circle cx="367.0" cy="418.0" r="32" fill="none" stroke="var(--accent-2)" stroke-width="3" stroke-dasharray="6 4"/>
      <g id="ITEM_2_ICON" transform="translate(337.0, 388.0)" data-icon-size="60" stroke-dasharray="6 4">
        <g transform="translate(-3.821848739495801,-5.657142857142858) scale(0.13109243697478992)" vector-effect="non-scaling-stroke" fill="#f1f5f9" fill-opacity="1.0" stroke="none">
          <path fill="#f1f5f9" d="M20.127 52.803v58.986L250.46 245.153c26.367-28.823 70.087-36.533 105.313-16.195c35.29 20.374 50.465 62.207 38.567 99.503l101.648 58.855l-64.728-74.65l35.638-37.352l-57.27-7.687l84.72-86.92l-125.71 33.186l12.995-120.208l-66.578 96.363l-27.448-80.593l-16.353 88.77zm0 105.12l-.008.018l.007.005v-.02zm0 .022l-.002 87.582l155.344 89.95l-89.94 33.287h135.493l-63.658 99.87l116.22-70.083l15.77 85.852l38.543-80.01l63.66 87.018l-5.853-87.047l90.54 17.268l-102.4-59.198c-26.546 26.964-68.89 33.744-103.183 13.945c-34.322-19.816-49.62-59.928-39.49-96.424zm316.6 119.442a39 39 0 0 0-2.805.092c-12.42.86-24.164 7.707-30.9 19.375a38.69 38.69 0 0 0 14.214 53.047a38.69 38.69 0 0 0 53.047-14.214a38.69 38.69 0 0 0-14.215-53.047c-6.125-3.536-12.78-5.23-19.34-5.253z" vector-effect="non-scaling-stroke" stroke="none"/>
        </g>
      </g>
      <rect x="440.0" y="374.0" width="690.0" height="24" rx="12" fill="var(--accent-2)" fill-opacity="0.08"/>
      <text x="1231.0" y="388.0" text-anchor="end" font-size="17" font-weight="800" fill="var(--accent-2)" opacity="0.72">02</text>
      <text id="ITEM_2_HEAD" x="453.0" y="364.0" text-anchor="start" font-weight="800" font-size="30" fill="var(--primary-text)" data-bg-id="ITEM_2_BG" fill-opacity="1.0" style="font-size: 30px; font-family: Inter, Segoe UI, Kalam, Roboto, Helvetica, Arial, sans-serif; font-weight: 700; letter-spacing:-0.4px;" data-final-font-size="30">
        <tspan x="453.0" dy="28.31px">Precision Tracking</tspan>
      </text>
      <rect id="ITEM_2_HEAD_FRAME" x="453.0" y="364.0" width="620.0" height="34" fill="none"/>
      <text id="ITEM_2_BODY" x="453.0" y="406.0" text-anchor="start" font-size="23" fill="var(--primary-text)" data-bg-id="ITEM_2_BG" style="font-size: 26px; font-family: Inter, Segoe UI, Kalam, Roboto, Helvetica, Arial, sans-serif; font-weight: 400;" data-final-font-size="26">
        <tspan x="453.0" dy="23.94px">Beam director stabilizes on a specific</tspan>
        <tspan x="453.0" dy="29.90px">vulnerable location</tspan>
      </text>
      <rect id="ITEM_2_BODY_FRAME" x="453.0" y="406.0" width="650.0" height="64.0" fill="none"/>
    </g>
    <g filter="url(#svgea55fb66-shadow)">
      <rect id="ITEM_3_BG" x="380.0" y="482.0" width="980" height="144" rx="24" fill="var(--panel)" fill-opacity="0.97" stroke="var(--accent-3)" stroke-width="2.5"/>
      <rect x="380.0" y="482.0" width="980" height="144" rx="16" fill="url(#svgea55fb66-universal-surface-sheen)" opacity="0.86"/>
      <rect x="380.0" y="482.0" width="980" height="18" rx="9" fill="var(--accent-3)" fill-opacity="0.55"/>
      <circle id="ITEM_3_PAD" cx="462.0" cy="554.0" r="40" fill="var(--icon-pad-bg)" opacity="0.95" fill-opacity="0.9" stroke-width="2" stroke="var(--primary-text)"/>
      <circle id="ITEM_3_PAD_INNER" cx="462.0" cy="554.0" r="31.20" fill="var(--accent-4)" fill-opacity="0.22"/>
      <circle cx="462.0" cy="554.0" r="32" fill="none" stroke="var(--accent-3)" stroke-width="3" stroke-dasharray="6 4"/>
      <g id="ITEM_3_ICON" transform="translate(432.0, 524.0)" data-icon-size="60" stroke-dasharray="6 4">
        <g transform="translate(-6.977777777777781,-6.977777777777781) scale(3.081481481481482)" vector-effect="non-scaling-stroke" stroke-width="2.43" stroke-linecap="round" stroke-linejoin="round" stroke-opacity="1.0">
          <path d="M5 21h9" vector-effect="non-scaling-stroke" fill="none" stroke="#f1f5f9"/>
          <path d="M10 21l-7 -8l8.5 -5.5" vector-effect="non-scaling-stroke" fill="none" stroke="#f1f5f9"/>
          <path d="M13 14c-2.148 -2.148 -2.148 -5.852 0 -8c2.088 -2.088 5.842 -1.972 8 0l-8 8z" vector-effect="non-scaling-stroke" fill="none" stroke="#f1f5f9"/>
          <path d="M11.742 7.574l-1.156 -1.156a2 2 0 0 1 2.828 -2.829l1.144 1.144" vector-effect="non-scaling-stroke" fill="none" stroke="#f1f5f9"/>
          <path d="M15.5 12l.208 .274a2.527 2.527 0 0 0 3.556 0c.939 -.933 .98 -2.42 .122 -3.4l-.366 -.369" vector-effect="non-scaling-stroke" fill="none" stroke="#f1f5f9"/>
        </g>
      </g>
      <rect x="535.0" y="510.0" width="690.0" height="24" rx="12" fill="var(--accent-3)" fill-opacity="0.08"/>
      <text x="1326.0" y="524.0" text-anchor="end" font-size="17" font-weight="800" fill="var(--accent-3)" opacity="0.72">03</text>
      <text id="ITEM_3_HEAD" x="548.0" y="500.0" text-anchor="start" font-weight="800" font-size="30" fill="var(--accent-4)" data-bg-id="ITEM_3_BG" fill-opacity="1.0" style="font-size: 30px; font-family: Inter, Segoe UI, Kalam, Roboto, Helvetica, Arial, sans-serif; font-weight: 700; letter-spacing:-0.4px;" data-final-font-size="30">
        <tspan x="548.0" dy="28.31px">Energy Dwell</tspan>
      </text>
      <rect id="ITEM_3_HEAD_FRAME" x="548.0" y="500.0" width="620.0" height="34" fill="none"/>
      <text id="ITEM_3_BODY" x="548.0" y="542.0" text-anchor="start" font-size="23" fill="var(--primary-text)" data-bg-id="ITEM_3_BG" style="font-size: 26px; font-family: Inter, Segoe UI, Kalam, Roboto, Helvetica, Arial, sans-serif; font-weight: 400;" data-final-font-size="26">
        <tspan x="548.0" dy="29.92px">Thermal energy accumulates on the target surface area</tspan>
      </text>
      <rect id="ITEM_3_BODY_FRAME" x="548.0" y="542.0" width="650.0" height="64.0" fill="none"/>
    </g>
    <g filter="url(#svgea55fb66-shadow)">
      <rect id="ITEM_4_BG" x="475.0" y="618.0" width="980" height="144" rx="24" fill="var(--panel)" fill-opacity="0.97" stroke="var(--accent-4)" stroke-width="2.5"/>
      <rect x="475.0" y="618.0" width="980" height="144" rx="16" fill="url(#svgea55fb66-universal-surface-sheen)" opacity="0.86"/>
      <rect x="475.0" y="618.0" width="980" height="18" rx="9" fill="var(--accent-4)" fill-opacity="0.55"/>
      <circle id="ITEM_4_PAD" cx="557.0" cy="690.0" r="40" fill="var(--icon-pad-bg)" opacity="0.95" fill-opacity="0.9" stroke-width="2" stroke="var(--primary-text)"/>
      <circle id="ITEM_4_PAD_INNER" cx="557.0" cy="690.0" r="31.20" fill="var(--accent-5)" fill-opacity="0.22"/>
      <circle cx="557.0" cy="690.0" r="32" fill="none" stroke="var(--accent-4)" stroke-width="3" stroke-dasharray="6 4"/>
      <g id="ITEM_4_ICON" transform="translate(527.0, 660.0)" data-icon-size="60" stroke-dasharray="6 4">
        <g transform="translate(-4.427586206896555,-4.427586206896555) scale(2.8689655172413797)" vector-effect="non-scaling-stroke" stroke-width="2.43" stroke-linecap="round" stroke-linejoin="round" stroke-opacity="1.0">
          <path d="M12 22C17.5228 22 22 17.5228 22 12C22 6.47715 17.5228 2 12 2C6.47715 2 2 6.47715 2 12C2 17.5228 6.47715 22 12 22Z" stroke="#f1f5f9" vector-effect="non-scaling-stroke" fill="none"/>
          <path d="M17.1973 9C17.0976 8.82774 16.9896 8.66089 16.8739 8.5" stroke="#f1f5f9" vector-effect="non-scaling-stroke" fill="none"/>
          <path d="M17.811 13.5C17.2683 15.6084 15.6084 17.2683 13.5 17.811" stroke="#f1f5f9" vector-effect="non-scaling-stroke" fill="none"/>
        </g>
      </g>
      <rect x="630.0" y="646.0" width="690.0" height="24" rx="12" fill="var(--accent-4)" fill-opacity="0.08"/>
      <text x="1421.0" y="660.0" text-anchor="end" font-size="17" font-weight="800" fill="var(--accent-4)" opacity="0.72">04</text>
      <text id="ITEM_4_HEAD" x="643.0" y="636.0" text-anchor="start" font-weight="800" font-size="30" fill="var(--primary-text)" data-bg-id="ITEM_4_BG" fill-opacity="1.0" style="font-size: 30px; font-family: Inter, Segoe UI, Kalam, Roboto, Helvetica, Arial, sans-serif; font-weight: 700; letter-spacing:-0.4px;" data-final-font-size="30">
        <tspan x="643.0" dy="28.31px">Damage Assessment</tspan>
      </text>
      <rect id="ITEM_4_HEAD_FRAME" x="643.0" y="636.0" width="620.0" height="34" fill="none"/>
      <text id="ITEM_4_BODY" x="643.0" y="678.0" text-anchor="start" font-size="23" fill="var(--primary-text)" data-bg-id="ITEM_4_BG" style="font-size: 26px; font-family: Inter, Segoe UI, Kalam, Roboto, Helvetica, Arial, sans-serif; font-weight: 400;" data-final-font-size="26">
        <tspan x="643.0" dy="23.94px">System determines if the target is</tspan>
        <tspan x="643.0" dy="29.90px">successfully neutralized</tspan>
      </text>
      <rect id="ITEM_4_BODY_FRAME" x="643.0" y="678.0" width="650.0" height="64.0" fill="none"/>
    </g>
    <g filter="url(#svgea55fb66-shadow)">
      <rect id="ITEM_5_BG" x="570.0" y="754.0" width="980" height="144" rx="24" fill="var(--panel)" fill-opacity="0.97" stroke="var(--accent-5)" stroke-width="2.5"/>
      <rect x="570.0" y="754.0" width="980" height="144" rx="16" fill="url(#svgea55fb66-universal-surface-sheen)" opacity="0.86"/>
      <rect x="570.0" y="754.0" width="980" height="18" rx="9" fill="var(--accent-5)" fill-opacity="0.55"/>
      <circle id="ITEM_5_PAD" cx="652.0" cy="826.0" r="40" fill="var(--icon-pad-bg)" opacity="0.95" fill-opacity="0.9" stroke-width="2" stroke="var(--primary-text)"/>
      <circle id="ITEM_5_PAD_INNER" cx="652.0" cy="826.0" r="31.20" fill="var(--accent-6)" fill-opacity="0.22"/>
      <circle cx="652.0" cy="826.0" r="32" fill="none" stroke="var(--accent-5)" stroke-width="3" stroke-dasharray="6 4"/>
      <g id="ITEM_5_ICON" transform="translate(622.0, 796.0)" data-icon-size="60" stroke-dasharray="6 4">
        <g transform="translate(-3.280000000000003,-3.280000000000001) scale(0.13)" vector-effect="non-scaling-stroke" fill="#f1f5f9" fill-opacity="1.0" stroke="none">
          <path fill="#f1f5f9" d="M130.72 61C106 61.11 106 62.875 106 91H76l-15 30v60l15 30h30c0 30 0 30 30 30h120c30 0 30 0 30-30h15l15-30h180v-60H316l-15-30h-15c0-30 0-30-30-30H136c-1.875 0-3.633-.007-5.28 0M166 271a15 15 0 0 0-15 15v45a15 15 0 0 0 15 15h60a15 15 0 0 0 15-15v-45a15 15 0 0 0-15-15zm-15 105c-30 0-45 30-45 30c-15 0-30 0-30 15l-60 15v15h360v-15l-60-15c0-15-15-15-30-15c0 0-15-30-45-30z" vector-effect="non-scaling-stroke" stroke="none"/>
        </g>
      </g>
      <rect x="725.0" y="782.0" width="690.0" height="24" rx="12" fill="var(--accent-5)" fill-opacity="0.08"/>
      <text x="1516.0" y="796.0" text-anchor="end" font-size="17" font-weight="800" fill="var(--accent-5)" opacity="0.72">05</text>
      <text id="ITEM_5_HEAD" x="738.0" y="772.0" text-anchor="start" font-weight="800" font-size="30" fill="var(--accent-6)" data-bg-id="ITEM_5_BG" fill-opacity="1.0" style="font-size: 30px; font-family: Inter, Segoe UI, Kalam, Roboto, Helvetica, Arial, sans-serif; font-weight: 700; letter-spacing:-0.4px;" data-final-font-size="30">
        <tspan x="738.0" dy="28.31px">Retargeting Cycle</tspan>
      </text>
      <rect id="ITEM_5_HEAD_FRAME" x="738.0" y="772.0" width="620.0" height="34" fill="none"/>
      <text id="ITEM_5_BODY" x="738.0" y="814.0" text-anchor="start" font-size="23" fill="var(--primary-text)" data-bg-id="ITEM_5_BG" style="font-size: 26px; font-family: Inter, Segoe UI, Kalam, Roboto, Helvetica, Arial, sans-serif; font-weight: 400;" data-final-font-size="26">
        <tspan x="738.0" dy="29.92px">System slews to the next drone in queue</tspan>
      </text>
      <rect id="ITEM_5_BODY_FRAME" x="738.0" y="814.0" width="650.0" height="64.0" fill="none"/>
    </g>
  </g>
</svg>
